ISO-10303-21;
HEADER;
FILE_DESCRIPTION(('FreeCAD Model'),'2;1');
FILE_NAME('Open CASCADE Shape Model','2026-02-28T17:20:47',(''),(''),
  'Open CASCADE STEP processor 7.8','FreeCAD','Unknown');
FILE_SCHEMA(('AUTOMOTIVE_DESIGN_CC2 { 1 2 10303 214 -1 1 5 4 }'));
ENDSEC;
DATA;
#1 = APPLICATION_PROTOCOL_DEFINITION('committee draft',
  'automotive_design',1997,#2);
#2 = APPLICATION_CONTEXT(
  'core data for automotive mechanical design processes');
#3 = SHAPE_DEFINITION_REPRESENTATION(#4,#10);
#4 = PRODUCT_DEFINITION_SHAPE('','',#5);
#5 = PRODUCT_DEFINITION('design','',#6,#9);
#6 = PRODUCT_DEFINITION_FORMATION('','',#7);
#7 = PRODUCT('Enclosure2','Enclosure2','',(#8));
#8 = MECHANICAL_CONTEXT('',#2,'mechanical');
#9 = PRODUCT_DEFINITION_CONTEXT('part definition',#2,'design');
#10 = SHAPE_REPRESENTATION('',(#11,#15),#19);
#11 = AXIS2_PLACEMENT_3D('',#12,#13,#14);
#12 = CARTESIAN_POINT('',(0.,0.,0.));
#13 = DIRECTION('',(0.,0.,1.));
#14 = DIRECTION('',(1.,0.,-0.));
#15 = AXIS2_PLACEMENT_3D('',#16,#17,#18);
#16 = CARTESIAN_POINT('',(0.,0.,0.));
#17 = DIRECTION('',(0.,0.,1.));
#18 = DIRECTION('',(1.,0.,0.));
#19 = ( GEOMETRIC_REPRESENTATION_CONTEXT(3) 
GLOBAL_UNCERTAINTY_ASSIGNED_CONTEXT((#23)) GLOBAL_UNIT_ASSIGNED_CONTEXT(
(#20,#21,#22)) REPRESENTATION_CONTEXT('Context #1',
  '3D Context with UNIT and UNCERTAINTY') );
#20 = ( LENGTH_UNIT() NAMED_UNIT(*) SI_UNIT(.MILLI.,.METRE.) );
#21 = ( NAMED_UNIT(*) PLANE_ANGLE_UNIT() SI_UNIT($,.RADIAN.) );
#22 = ( NAMED_UNIT(*) SI_UNIT($,.STERADIAN.) SOLID_ANGLE_UNIT() );
#23 = UNCERTAINTY_MEASURE_WITH_UNIT(LENGTH_MEASURE(1.E-07),#20,
  'distance_accuracy_value','confusion accuracy');
#24 = PRODUCT_TYPE('part',$,(#7));
#25 = SHAPE_DEFINITION_REPRESENTATION(#26,#32);
#26 = PRODUCT_DEFINITION_SHAPE('','',#27);
#27 = PRODUCT_DEFINITION('design','',#28,#31);
#28 = PRODUCT_DEFINITION_FORMATION('','',#29);
#29 = PRODUCT('Body002','Body002','',(#30));
#30 = MECHANICAL_CONTEXT('',#2,'mechanical');
#31 = PRODUCT_DEFINITION_CONTEXT('part definition',#2,'design');
#32 = ADVANCED_BREP_SHAPE_REPRESENTATION('',(#11,#33),#717);
#33 = MANIFOLD_SOLID_BREP('',#34);
#34 = CLOSED_SHELL('',(#35,#318,#322,#357,#570,#625,#706,#713));
#35 = ADVANCED_FACE('',(#36,#123),#49,.T.);
#36 = FACE_BOUND('',#37,.F.);
#37 = EDGE_LOOP('',(#38,#72,#95,#122));
#38 = ORIENTED_EDGE('',*,*,#39,.F.);
#39 = EDGE_CURVE('',#40,#40,#42,.T.);
#40 = VERTEX_POINT('',#41);
#41 = CARTESIAN_POINT('',(13.7,0.,0.));
#42 = SURFACE_CURVE('',#43,(#48,#60),.PCURVE_S1.);
#43 = CIRCLE('',#44,13.7);
#44 = AXIS2_PLACEMENT_3D('',#45,#46,#47);
#45 = CARTESIAN_POINT('',(0.,0.,0.));
#46 = DIRECTION('',(0.,0.,1.));
#47 = DIRECTION('',(1.,0.,0.));
#48 = PCURVE('',#49,#54);
#49 = CYLINDRICAL_SURFACE('',#50,13.7);
#50 = AXIS2_PLACEMENT_3D('',#51,#52,#53);
#51 = CARTESIAN_POINT('',(0.,0.,0.));
#52 = DIRECTION('',(-0.,-0.,-1.));
#53 = DIRECTION('',(1.,0.,0.));
#54 = DEFINITIONAL_REPRESENTATION('',(#55),#59);
#55 = LINE('',#56,#57);
#56 = CARTESIAN_POINT('',(-0.,0.));
#57 = VECTOR('',#58,1.);
#58 = DIRECTION('',(-1.,0.));
#59 = ( GEOMETRIC_REPRESENTATION_CONTEXT(2) 
PARAMETRIC_REPRESENTATION_CONTEXT() REPRESENTATION_CONTEXT('2D SPACE',''
  ) );
#60 = PCURVE('',#61,#66);
#61 = PLANE('',#62);
#62 = AXIS2_PLACEMENT_3D('',#63,#64,#65);
#63 = CARTESIAN_POINT('',(-1.597010373769E-15,2.392498152737E-16,0.));
#64 = DIRECTION('',(0.,0.,1.));
#65 = DIRECTION('',(1.,0.,0.));
#66 = DEFINITIONAL_REPRESENTATION('',(#67),#71);
#67 = CIRCLE('',#68,13.7);
#68 = AXIS2_PLACEMENT_2D('',#69,#70);
#69 = CARTESIAN_POINT('',(1.597010373769E-15,-2.392498152737E-16));
#70 = DIRECTION('',(1.,0.));
#71 = ( GEOMETRIC_REPRESENTATION_CONTEXT(2) 
PARAMETRIC_REPRESENTATION_CONTEXT() REPRESENTATION_CONTEXT('2D SPACE',''
  ) );
#72 = ORIENTED_EDGE('',*,*,#73,.T.);
#73 = EDGE_CURVE('',#40,#74,#76,.T.);
#74 = VERTEX_POINT('',#75);
#75 = CARTESIAN_POINT('',(13.7,0.,9.));
#76 = SEAM_CURVE('',#77,(#81,#88),.PCURVE_S1.);
#77 = LINE('',#78,#79);
#78 = CARTESIAN_POINT('',(13.7,0.,0.));
#79 = VECTOR('',#80,1.);
#80 = DIRECTION('',(0.,0.,1.));
#81 = PCURVE('',#49,#82);
#82 = DEFINITIONAL_REPRESENTATION('',(#83),#87);
#83 = LINE('',#84,#85);
#84 = CARTESIAN_POINT('',(-6.28318530718,0.));
#85 = VECTOR('',#86,1.);
#86 = DIRECTION('',(-0.,-1.));
#87 = ( GEOMETRIC_REPRESENTATION_CONTEXT(2) 
PARAMETRIC_REPRESENTATION_CONTEXT() REPRESENTATION_CONTEXT('2D SPACE',''
  ) );
#88 = PCURVE('',#49,#89);
#89 = DEFINITIONAL_REPRESENTATION('',(#90),#94);
#90 = LINE('',#91,#92);
#91 = CARTESIAN_POINT('',(-0.,0.));
#92 = VECTOR('',#93,1.);
#93 = DIRECTION('',(-0.,-1.));
#94 = ( GEOMETRIC_REPRESENTATION_CONTEXT(2) 
PARAMETRIC_REPRESENTATION_CONTEXT() REPRESENTATION_CONTEXT('2D SPACE',''
  ) );
#95 = ORIENTED_EDGE('',*,*,#96,.T.);
#96 = EDGE_CURVE('',#74,#74,#97,.T.);
#97 = SURFACE_CURVE('',#98,(#103,#110),.PCURVE_S1.);
#98 = CIRCLE('',#99,13.7);
#99 = AXIS2_PLACEMENT_3D('',#100,#101,#102);
#100 = CARTESIAN_POINT('',(0.,0.,9.));
#101 = DIRECTION('',(0.,0.,1.));
#102 = DIRECTION('',(1.,0.,0.));
#103 = PCURVE('',#49,#104);
#104 = DEFINITIONAL_REPRESENTATION('',(#105),#109);
#105 = LINE('',#106,#107);
#106 = CARTESIAN_POINT('',(-0.,-9.));
#107 = VECTOR('',#108,1.);
#108 = DIRECTION('',(-1.,0.));
#109 = ( GEOMETRIC_REPRESENTATION_CONTEXT(2) 
PARAMETRIC_REPRESENTATION_CONTEXT() REPRESENTATION_CONTEXT('2D SPACE',''
  ) );
#110 = PCURVE('',#111,#116);
#111 = PLANE('',#112);
#112 = AXIS2_PLACEMENT_3D('',#113,#114,#115);
#113 = CARTESIAN_POINT('',(-1.597010373769E-15,2.392498152737E-16,9.));
#114 = DIRECTION('',(0.,0.,1.));
#115 = DIRECTION('',(1.,0.,0.));
#116 = DEFINITIONAL_REPRESENTATION('',(#117),#121);
#117 = CIRCLE('',#118,13.7);
#118 = AXIS2_PLACEMENT_2D('',#119,#120);
#119 = CARTESIAN_POINT('',(1.597010373769E-15,-2.392498152737E-16));
#120 = DIRECTION('',(1.,0.));
#121 = ( GEOMETRIC_REPRESENTATION_CONTEXT(2) 
PARAMETRIC_REPRESENTATION_CONTEXT() REPRESENTATION_CONTEXT('2D SPACE',''
  ) );
#122 = ORIENTED_EDGE('',*,*,#73,.F.);
#123 = FACE_BOUND('',#124,.F.);
#124 = EDGE_LOOP('',(#125));
#125 = ORIENTED_EDGE('',*,*,#126,.F.);
#126 = EDGE_CURVE('',#127,#127,#129,.T.);
#127 = VERTEX_POINT('',#128);
#128 = CARTESIAN_POINT('',(-13.58123705705,1.8,5.));
#129 = SURFACE_CURVE('',#130,(#189,#251),.PCURVE_S1.);
#130 = B_SPLINE_CURVE_WITH_KNOTS('',8,(#131,#132,#133,#134,#135,#136,
    #137,#138,#139,#140,#141,#142,#143,#144,#145,#146,#147,#148,#149,
    #150,#151,#152,#153,#154,#155,#156,#157,#158,#159,#160,#161,#162,
    #163,#164,#165,#166,#167,#168,#169,#170,#171,#172,#173,#174,#175,
    #176,#177,#178,#179,#180,#181,#182,#183,#184,#185,#186,#187,#188),
  .UNSPECIFIED.,.T.,.F.,(9,7,7,7,7,7,7,7,9),(0.,0.125663619874,
    0.214840955868,0.300693044088,0.431083624267,0.593291842659,
    0.714055300678,0.832653446029,1.),.UNSPECIFIED.);
#131 = CARTESIAN_POINT('',(-13.58123705705,1.8,5.));
#132 = CARTESIAN_POINT('',(-13.58123705705,1.8,5.157103979269));
#133 = CARTESIAN_POINT('',(-13.5833139611,1.78432936766,5.314118136625)
  );
#134 = CARTESIAN_POINT('',(-13.58746391672,1.753017873277,5.470082844607
    ));
#135 = CARTESIAN_POINT('',(-13.59360915999,1.705873071957,5.623969115707
    ));
#136 = CARTESIAN_POINT('',(-13.6015931535,1.642530779247,5.77458917727)
  );
#137 = CARTESIAN_POINT('',(-13.61115725618,1.562503035839,5.920499110809
    ));
#138 = CARTESIAN_POINT('',(-13.62191041231,1.465237214867,6.059877165746
    ));
#139 = CARTESIAN_POINT('',(-13.64138835717,1.268563577196,6.282959618152
    ));
#140 = CARTESIAN_POINT('',(-13.64983794943,1.177549281356,6.371563980353
    ));
#141 = CARTESIAN_POINT('',(-13.65842450494,1.077179791622,6.45482005359)
  );
#142 = CARTESIAN_POINT('',(-13.66686893605,0.967646687886,6.531374521794
    ));
#143 = CARTESIAN_POINT('',(-13.67485247184,0.849308190946,6.59987450901)
  );
#144 = CARTESIAN_POINT('',(-13.68203496316,0.722692174591,6.658964715899
    ));
#145 = CARTESIAN_POINT('',(-13.6880797073,0.588504374917,6.707282327187)
  );
#146 = CARTESIAN_POINT('',(-13.69711816275,0.312031707848,6.778268442925
    ));
#147 = CARTESIAN_POINT('',(-13.70019126863,0.171031255915,6.801621422194
    ));
#148 = CARTESIAN_POINT('',(-13.70162254062,2.676691343292E-02,
    6.81220177287));
#149 = CARTESIAN_POINT('',(-13.70124717825,-0.118444075924,
    6.809363474165));
#150 = CARTESIAN_POINT('',(-13.69906342126,-0.262217221053,
    6.793111132304));
#151 = CARTESIAN_POINT('',(-13.69523970137,-0.402223386766,
    6.764094655859));
#152 = CARTESIAN_POINT('',(-13.6900826747,-0.536310476559,6.723608813559
    ));
#153 = CARTESIAN_POINT('',(-13.67467644577,-0.854467158138,
    6.597641672135));
#154 = CARTESIAN_POINT('',(-13.66317414337,-1.028374670178,
    6.499715461226));
#155 = CARTESIAN_POINT('',(-13.65051126976,-1.183284056952,
    6.384470367552));
#156 = CARTESIAN_POINT('',(-13.63766709322,-1.318876299268,
    6.255722192061));
#157 = CARTESIAN_POINT('',(-13.62543289499,-1.435267374031,
    6.116664357854));
#158 = CARTESIAN_POINT('',(-13.6143952969,-1.532827574384,5.969998241455
    ));
#159 = CARTESIAN_POINT('',(-13.60496428198,-1.612076033221,
    5.818010123615));
#160 = CARTESIAN_POINT('',(-13.58797207935,-1.750131698965,
    5.469321314851));
#161 = CARTESIAN_POINT('',(-13.58138962743,-1.799551716406,
    5.269951407238));
#162 = CARTESIAN_POINT('',(-13.57813337949,-1.822908211571,5.06730656357
    ));
#163 = CARTESIAN_POINT('',(-13.57842313208,-1.820671240637,
    4.863568317929));
#164 = CARTESIAN_POINT('',(-13.58227952215,-1.792827952197,
    4.660815555704));
#165 = CARTESIAN_POINT('',(-13.58952429757,-1.738929644183,
    4.461295198226));
#166 = CARTESIAN_POINT('',(-13.5997266034,-1.658139937693,4.267703457046
    ));
#167 = CARTESIAN_POINT('',(-13.62133070291,-1.468331231399,3.94675446244
    ));
#168 = CARTESIAN_POINT('',(-13.63183632518,-1.371127868961,
    3.813976960569));
#169 = CARTESIAN_POINT('',(-13.64329059012,-1.257270968681,3.68784705416
    ));
#170 = CARTESIAN_POINT('',(-13.65519249788,-1.12664282708,3.571002992066
    ));
#171 = CARTESIAN_POINT('',(-13.666885532,-0.979477332743,3.466271576812)
  );
#172 = CARTESIAN_POINT('',(-13.67758486975,-0.816400031316,3.37669020322
    ));
#173 = CARTESIAN_POINT('',(-13.6864444236,-0.638525227245,3.305560844799
    ));
#174 = CARTESIAN_POINT('',(-13.69881326998,-0.260180944178,
    3.208418543713));
#175 = CARTESIAN_POINT('',(-13.7022923508,-6.392715554219E-02,
    3.182583713322));
#176 = CARTESIAN_POINT('',(-13.70248625888,0.136131743254,3.181644816346
    ));
#177 = CARTESIAN_POINT('',(-13.69913199703,0.334520331619,3.206285509595
    ));
#178 = CARTESIAN_POINT('',(-13.69255284576,0.525754858334,3.255360974155
    ));
#179 = CARTESIAN_POINT('',(-13.68357234881,0.704842764898,3.325951992184
    ));
#180 = CARTESIAN_POINT('',(-13.67325375219,0.867745802876,3.41338976054)
  );
#181 = CARTESIAN_POINT('',(-13.64754270529,1.214945665402,3.649346543456
    ));
#182 = CARTESIAN_POINT('',(-13.63136475909,1.386515550084,3.812279392075
    ));
#183 = CARTESIAN_POINT('',(-13.61590242441,1.526875058517,3.992290299659
    ));
#184 = CARTESIAN_POINT('',(-13.6025012624,1.637251709266,4.183984049522)
  );
#185 = CARTESIAN_POINT('',(-13.59198230787,1.718922506506,4.383348586234
    ));
#186 = CARTESIAN_POINT('',(-13.58482141707,1.772956185758,4.587350615578
    ));
#187 = CARTESIAN_POINT('',(-13.58123705705,1.8,4.793617265645));
#188 = CARTESIAN_POINT('',(-13.58123705705,1.8,5.));
#189 = PCURVE('',#49,#190);
#190 = DEFINITIONAL_REPRESENTATION('',(#191),#250);
#191 = B_SPLINE_CURVE_WITH_KNOTS('',8,(#192,#193,#194,#195,#196,#197,
    #198,#199,#200,#201,#202,#203,#204,#205,#206,#207,#208,#209,#210,
    #211,#212,#213,#214,#215,#216,#217,#218,#219,#220,#221,#222,#223,
    #224,#225,#226,#227,#228,#229,#230,#231,#232,#233,#234,#235,#236,
    #237,#238,#239,#240,#241,#242,#243,#244,#245,#246,#247,#248,#249),
  .UNSPECIFIED.,.T.,.F.,(9,7,7,7,7,7,7,7,9),(0.,0.125663619874,
    0.214840955868,0.300693044088,0.431083624267,0.593291842659,
    0.714055300678,0.832653446029,1.),.UNSPECIFIED.);
#192 = CARTESIAN_POINT('',(-3.009824814196,-5.));
#193 = CARTESIAN_POINT('',(-3.009824814196,-5.157103979269));
#194 = CARTESIAN_POINT('',(-3.010978658108,-5.314118136625));
#195 = CARTESIAN_POINT('',(-3.013284156109,-5.470082844607));
#196 = CARTESIAN_POINT('',(-3.016754483573,-5.623969115707));
#197 = CARTESIAN_POINT('',(-3.021414500278,-5.77458917727));
#198 = CARTESIAN_POINT('',(-3.027297220326,-5.920499110809));
#199 = CARTESIAN_POINT('',(-3.034439707255,-6.059877165746));
#200 = CARTESIAN_POINT('',(-3.048865678177,-6.282959618152));
#201 = CARTESIAN_POINT('',(-3.055537495523,-6.371563980353));
#202 = CARTESIAN_POINT('',(-3.062890175859,-6.45482005359));
#203 = CARTESIAN_POINT('',(-3.070908406789,-6.531374521794));
#204 = CARTESIAN_POINT('',(-3.079564997221,-6.59987450901));
#205 = CARTESIAN_POINT('',(-3.088820907358,-6.658964715899));
#206 = CARTESIAN_POINT('',(-3.098624819981,-6.707282327187));
#207 = CARTESIAN_POINT('',(-3.118816087893,-6.778268442925));
#208 = CARTESIAN_POINT('',(-3.129109940671,-6.801621422194));
#209 = CARTESIAN_POINT('',(-3.139639413558,-6.81220177287));
#210 = CARTESIAN_POINT('',(-3.150237160242,-6.809363474165));
#211 = CARTESIAN_POINT('',(-3.160731207433,-6.793111132304));
#212 = CARTESIAN_POINT('',(-3.170953329754,-6.764094655859));
#213 = CARTESIAN_POINT('',(-3.180747477997,-6.723608813559));
#214 = CARTESIAN_POINT('',(-3.20399780458,-6.597641672135));
#215 = CARTESIAN_POINT('',(-3.216717530614,-6.499715461226));
#216 = CARTESIAN_POINT('',(-3.228060475346,-6.384470367552));
#217 = CARTESIAN_POINT('',(-3.238000767903,-6.255722192061));
#218 = CARTESIAN_POINT('',(-3.246542720336,-6.116664357854));
#219 = CARTESIAN_POINT('',(-3.253709111582,-5.969998241455));
#220 = CARTESIAN_POINT('',(-3.259534445479,-5.818010123615));
#221 = CARTESIAN_POINT('',(-3.269687544334,-5.469321314851));
#222 = CARTESIAN_POINT('',(-3.273326526191,-5.269951407238));
#223 = CARTESIAN_POINT('',(-3.275047900482,-5.06730656357));
#224 = CARTESIAN_POINT('',(-3.274883299797,-4.863568317929));
#225 = CARTESIAN_POINT('',(-3.272831460861,-4.660815555704));
#226 = CARTESIAN_POINT('',(-3.268861950559,-4.461295198226));
#227 = CARTESIAN_POINT('',(-3.262918501517,-4.267703457046));
#228 = CARTESIAN_POINT('',(-3.248974396169,-3.94675446244));
#229 = CARTESIAN_POINT('',(-3.241838053539,-3.813976960569));
#230 = CARTESIAN_POINT('',(-3.233485783581,-3.68784705416));
#231 = CARTESIAN_POINT('',(-3.22391228537,-3.571002992066));
#232 = CARTESIAN_POINT('',(-3.213138105196,-3.466271576812));
#233 = CARTESIAN_POINT('',(-3.201211352389,-3.37669020322));
#234 = CARTESIAN_POINT('',(-3.188213594904,-3.305560844799));
#235 = CARTESIAN_POINT('',(-3.160582470051,-3.208418543713));
#236 = CARTESIAN_POINT('',(-3.146256714453,-3.182583713322));
#237 = CARTESIAN_POINT('',(-3.131657351227,-3.181644816346));
#238 = CARTESIAN_POINT('',(-3.117178833067,-3.206285509595));
#239 = CARTESIAN_POINT('',(-3.103215571228,-3.255360974155));
#240 = CARTESIAN_POINT('',(-3.090128903826,-3.325951992184));
#241 = CARTESIAN_POINT('',(-3.078215031473,-3.41338976054));
#242 = CARTESIAN_POINT('',(-3.052802582882,-3.649346543456));
#243 = CARTESIAN_POINT('',(-3.040226224705,-3.812279392076));
#244 = CARTESIAN_POINT('',(-3.029920606795,-3.992290299659));
#245 = CARTESIAN_POINT('',(-3.02180517978,-4.183984049522));
#246 = CARTESIAN_POINT('',(-3.015794635041,-4.383348586234));
#247 = CARTESIAN_POINT('',(-3.0118160762,-4.587350615578));
#248 = CARTESIAN_POINT('',(-3.009824814196,-4.793617265645));
#249 = CARTESIAN_POINT('',(-3.009824814196,-5.));
#250 = ( GEOMETRIC_REPRESENTATION_CONTEXT(2) 
PARAMETRIC_REPRESENTATION_CONTEXT() REPRESENTATION_CONTEXT('2D SPACE',''
  ) );
#251 = PCURVE('',#252,#257);
#252 = CYLINDRICAL_SURFACE('',#253,1.8);
#253 = AXIS2_PLACEMENT_3D('',#254,#255,#256);
#254 = CARTESIAN_POINT('',(0.,0.,5.));
#255 = DIRECTION('',(1.,0.,0.));
#256 = DIRECTION('',(0.,1.,0.));
#257 = DEFINITIONAL_REPRESENTATION('',(#258),#317);
#258 = B_SPLINE_CURVE_WITH_KNOTS('',8,(#259,#260,#261,#262,#263,#264,
    #265,#266,#267,#268,#269,#270,#271,#272,#273,#274,#275,#276,#277,
    #278,#279,#280,#281,#282,#283,#284,#285,#286,#287,#288,#289,#290,
    #291,#292,#293,#294,#295,#296,#297,#298,#299,#300,#301,#302,#303,
    #304,#305,#306,#307,#308,#309,#310,#311,#312,#313,#314,#315,#316),
  .UNSPECIFIED.,.F.,.F.,(9,7,7,7,7,7,7,7,9),(0.,0.125663619874,
    0.214840955868,0.300693044088,0.431083624267,0.593291842659,
    0.714055300678,0.832653446029,1.),.UNSPECIFIED.);
#259 = CARTESIAN_POINT('',(0.,-13.58123705705));
#260 = CARTESIAN_POINT('',(8.727998848274E-02,-13.58123705705));
#261 = CARTESIAN_POINT('',(0.174509970172,-13.5833139611));
#262 = CARTESIAN_POINT('',(0.262170548753,-13.58746391672));
#263 = CARTESIAN_POINT('',(0.350697151154,-13.59360915999));
#264 = CARTESIAN_POINT('',(0.440526210155,-13.6015931535));
#265 = CARTESIAN_POINT('',(0.532107774013,-13.61115725618));
#266 = CARTESIAN_POINT('',(0.625925665198,-13.62191041231));
#267 = CARTESIAN_POINT('',(0.791147458074,-13.64138835717));
#268 = CARTESIAN_POINT('',(0.86150983485,-13.64983794943));
#269 = CARTESIAN_POINT('',(0.933571402462,-13.65842450494));
#270 = CARTESIAN_POINT('',(1.007297695989,-13.66686893605));
#271 = CARTESIAN_POINT('',(1.082691674699,-13.67485247184));
#272 = CARTESIAN_POINT('',(1.15979112181,-13.68203496316));
#273 = CARTESIAN_POINT('',(1.238673593125,-13.6880797073));
#274 = CARTESIAN_POINT('',(1.397251536985,-13.69711816275));
#275 = CARTESIAN_POINT('',(1.476350311333,-13.70019126863));
#276 = CARTESIAN_POINT('',(1.556158920066,-13.70162254062));
#277 = CARTESIAN_POINT('',(1.636157740908,-13.70124717825));
#278 = CARTESIAN_POINT('',(1.715862532161,-13.69906342126));
#279 = CARTESIAN_POINT('',(1.794771833514,-13.69523970137));
#280 = CARTESIAN_POINT('',(1.872313082306,-13.6900826747));
#281 = CARTESIAN_POINT('',(2.062416526168,-13.67467644577));
#282 = CARTESIAN_POINT('',(2.172274794758,-13.66317414337));
#283 = CARTESIAN_POINT('',(2.278154500104,-13.65051126976));
#284 = CARTESIAN_POINT('',(2.380612194345,-13.63766709322));
#285 = CARTESIAN_POINT('',(2.480107965952,-13.62543289499));
#286 = CARTESIAN_POINT('',(2.577040791216,-13.6143952969));
#287 = CARTESIAN_POINT('',(2.671756085419,-13.60496428198));
#288 = CARTESIAN_POINT('',(2.880102938463,-13.58797207935));
#289 = CARTESIAN_POINT('',(2.993193189006,-13.58138962743));
#290 = CARTESIAN_POINT('',(3.104991644108,-13.57813337949));
#291 = CARTESIAN_POINT('',(3.216408617021,-13.57842313208));
#292 = CARTESIAN_POINT('',(3.328294099578,-13.58227952215));
#293 = CARTESIAN_POINT('',(3.441495853525,-13.58952429757));
#294 = CARTESIAN_POINT('',(3.556917021008,-13.5997266034));
#295 = CARTESIAN_POINT('',(3.764069676983,-13.62133070291));
#296 = CARTESIAN_POINT('',(3.855051491114,-13.63183632518));
#297 = CARTESIAN_POINT('',(3.948618200443,-13.64329059012));
#298 = CARTESIAN_POINT('',(4.044848565688,-13.65519249788));
#299 = CARTESIAN_POINT('',(4.143905636971,-13.666885532));
#300 = CARTESIAN_POINT('',(4.246033217353,-13.67758486975));
#301 = CARTESIAN_POINT('',(4.351575512125,-13.6864444236));
#302 = CARTESIAN_POINT('',(4.568584517449,-13.69881326998));
#303 = CARTESIAN_POINT('',(4.677758049587,-13.7022923508));
#304 = CARTESIAN_POINT('',(4.787435375024,-13.70248625888));
#305 = CARTESIAN_POINT('',(4.896709350085,-13.69913199703));
#306 = CARTESIAN_POINT('',(5.004697222494,-13.69255284576));
#307 = CARTESIAN_POINT('',(5.11040614778,-13.68357234881));
#308 = CARTESIAN_POINT('',(5.212562948031,-13.67325375219));
#309 = CARTESIAN_POINT('',(5.445779418729,-13.64754270529));
#310 = CARTESIAN_POINT('',(5.575493038968,-13.63136475909));
#311 = CARTESIAN_POINT('',(5.700070916974,-13.61590242441));
#312 = CARTESIAN_POINT('',(5.820663135119,-13.6025012624));
#313 = CARTESIAN_POINT('',(5.938305762628,-13.59198230787));
#314 = CARTESIAN_POINT('',(6.053935336124,-13.58482141707));
#315 = CARTESIAN_POINT('',(6.168528232538,-13.58123705705));
#316 = CARTESIAN_POINT('',(6.28318530718,-13.58123705705));
#317 = ( GEOMETRIC_REPRESENTATION_CONTEXT(2) 
PARAMETRIC_REPRESENTATION_CONTEXT() REPRESENTATION_CONTEXT('2D SPACE',''
  ) );
#318 = ADVANCED_FACE('',(#319),#61,.F.);
#319 = FACE_BOUND('',#320,.F.);
#320 = EDGE_LOOP('',(#321));
#321 = ORIENTED_EDGE('',*,*,#39,.T.);
#322 = ADVANCED_FACE('',(#323,#326),#111,.T.);
#323 = FACE_BOUND('',#324,.T.);
#324 = EDGE_LOOP('',(#325));
#325 = ORIENTED_EDGE('',*,*,#96,.T.);
#326 = FACE_BOUND('',#327,.T.);
#327 = EDGE_LOOP('',(#328));
#328 = ORIENTED_EDGE('',*,*,#329,.F.);
#329 = EDGE_CURVE('',#330,#330,#332,.T.);
#330 = VERTEX_POINT('',#331);
#331 = CARTESIAN_POINT('',(12.7,0.,9.));
#332 = SURFACE_CURVE('',#333,(#338,#345),.PCURVE_S1.);
#333 = CIRCLE('',#334,12.7);
#334 = AXIS2_PLACEMENT_3D('',#335,#336,#337);
#335 = CARTESIAN_POINT('',(0.,0.,9.));
#336 = DIRECTION('',(0.,0.,1.));
#337 = DIRECTION('',(1.,0.,0.));
#338 = PCURVE('',#111,#339);
#339 = DEFINITIONAL_REPRESENTATION('',(#340),#344);
#340 = CIRCLE('',#341,12.7);
#341 = AXIS2_PLACEMENT_2D('',#342,#343);
#342 = CARTESIAN_POINT('',(1.597010373769E-15,-2.392498152737E-16));
#343 = DIRECTION('',(1.,0.));
#344 = ( GEOMETRIC_REPRESENTATION_CONTEXT(2) 
PARAMETRIC_REPRESENTATION_CONTEXT() REPRESENTATION_CONTEXT('2D SPACE',''
  ) );
#345 = PCURVE('',#346,#351);
#346 = CYLINDRICAL_SURFACE('',#347,12.7);
#347 = AXIS2_PLACEMENT_3D('',#348,#349,#350);
#348 = CARTESIAN_POINT('',(0.,0.,9.));
#349 = DIRECTION('',(0.,0.,1.));
#350 = DIRECTION('',(1.,0.,0.));
#351 = DEFINITIONAL_REPRESENTATION('',(#352),#356);
#352 = LINE('',#353,#354);
#353 = CARTESIAN_POINT('',(0.,0.));
#354 = VECTOR('',#355,1.);
#355 = DIRECTION('',(1.,0.));
#356 = ( GEOMETRIC_REPRESENTATION_CONTEXT(2) 
PARAMETRIC_REPRESENTATION_CONTEXT() REPRESENTATION_CONTEXT('2D SPACE',''
  ) );
#357 = ADVANCED_FACE('',(#358),#252,.F.);
#358 = FACE_BOUND('',#359,.F.);
#359 = EDGE_LOOP('',(#360,#547,#568,#569));
#360 = ORIENTED_EDGE('',*,*,#361,.F.);
#361 = EDGE_CURVE('',#362,#362,#364,.T.);
#362 = VERTEX_POINT('',#363);
#363 = CARTESIAN_POINT('',(-11.86423195997,1.8,5.));
#364 = SURFACE_CURVE('',#365,(#422,#482),.PCURVE_S1.);
#365 = B_SPLINE_CURVE_WITH_KNOTS('',7,(#366,#367,#368,#369,#370,#371,
    #372,#373,#374,#375,#376,#377,#378,#379,#380,#381,#382,#383,#384,
    #385,#386,#387,#388,#389,#390,#391,#392,#393,#394,#395,#396,#397,
    #398,#399,#400,#401,#402,#403,#404,#405,#406,#407,#408,#409,#410,
    #411,#412,#413,#414,#415,#416,#417,#418,#419,#420,#421),
  .UNSPECIFIED.,.T.,.F.,(8,6,6,6,6,6,6,6,6,8),(0.,0.126357415958,
    0.216083998213,0.302441715599,0.406163834404,0.501146048636,
    0.627749690908,0.750952000172,0.863831936007,1.),.UNSPECIFIED.);
#366 = CARTESIAN_POINT('',(-11.86423195997,1.8,5.));
#367 = CARTESIAN_POINT('',(-11.86423195997,1.8,5.179613257772));
#368 = CARTESIAN_POINT('',(-11.8674042561,1.779090489319,5.359104891486)
  );
#369 = CARTESIAN_POINT('',(-11.87374165402,1.737319930435,5.536920433213
    ));
#370 = CARTESIAN_POINT('',(-11.88306446822,1.674303678228,5.711371305906
    ));
#371 = CARTESIAN_POINT('',(-11.8950062467,1.589354041881,5.88040142879)
  );
#372 = CARTESIAN_POINT('',(-11.90891903021,1.48159864352,6.041318767824)
  );
#373 = CARTESIAN_POINT('',(-11.93436367938,1.256893507139,6.296196714282
    ));
#374 = CARTESIAN_POINT('',(-11.94548112296,1.151094393789,6.396690886158
    ));
#375 = CARTESIAN_POINT('',(-11.95673402494,1.032837325626,6.489688273113
    ));
#376 = CARTESIAN_POINT('',(-11.9675894377,0.90249071408,6.573032489488)
  );
#377 = CARTESIAN_POINT('',(-11.97743365924,0.76075140656,6.644563820852)
  );
#378 = CARTESIAN_POINT('',(-11.98563704371,0.608660727693,6.70210705541)
  );
#379 = CARTESIAN_POINT('',(-11.99743286579,0.292668466027,6.78324007842)
  );
#380 = CARTESIAN_POINT('',(-12.00114721556,0.130488905922,6.807749792323
    ));
#381 = CARTESIAN_POINT('',(-12.00227602413,-3.548409486485E-02,
    6.814877487787));
#382 = CARTESIAN_POINT('',(-12.00057184575,-0.201458159321,
    6.803851675867));
#383 = CARTESIAN_POINT('',(-11.99619433129,-0.363588873641,
    6.775199063021));
#384 = CARTESIAN_POINT('',(-11.98967276507,-0.51830397777,6.730738090769
    ));
#385 = CARTESIAN_POINT('',(-11.9721052139,-0.835963638637,6.604967733767
    ));
#386 = CARTESIAN_POINT('',(-11.96039481118,-0.99464067663,6.517914369491
    ));
#387 = CARTESIAN_POINT('',(-11.94750313032,-1.137633696107,
    6.416045483951));
#388 = CARTESIAN_POINT('',(-11.93432422506,-1.264518977216,6.30243101669
    ));
#389 = CARTESIAN_POINT('',(-11.92160056523,-1.375254537285,
    6.179742712104));
#390 = CARTESIAN_POINT('',(-11.9098841282,-1.470051879881,6.050336079869
    ));
#391 = CARTESIAN_POINT('',(-11.89010829424,-1.621938753838,
    5.793509401882));
#392 = CARTESIAN_POINT('',(-11.8817873918,-1.681809994419,5.666371590244
    ));
#393 = CARTESIAN_POINT('',(-11.87488319674,-1.729299856264,
    5.536042264431));
#394 = CARTESIAN_POINT('',(-11.86958716631,-1.76470192458,5.403476441792
    ));
#395 = CARTESIAN_POINT('',(-11.86601757901,-1.788230792647,
    5.269474796685));
#396 = CARTESIAN_POINT('',(-11.86423195997,-1.8,5.134751770349));
#397 = CARTESIAN_POINT('',(-11.86423195997,-1.8,4.820386742228));
#398 = CARTESIAN_POINT('',(-11.8674042561,-1.779090489319,4.640895108513
    ));
#399 = CARTESIAN_POINT('',(-11.87374165402,-1.737319930435,
    4.463079566787));
#400 = CARTESIAN_POINT('',(-11.88306446822,-1.674303678228,
    4.288628694094));
#401 = CARTESIAN_POINT('',(-11.8950062467,-1.589354041881,4.11959857121)
  );
#402 = CARTESIAN_POINT('',(-11.90891903021,-1.48159864352,3.958681232176
    ));
#403 = CARTESIAN_POINT('',(-11.93827734866,-1.22233136465,3.664600230351
    ));
#404 = CARTESIAN_POINT('',(-11.95403624649,-1.068852344558,
    3.527153864909));
#405 = CARTESIAN_POINT('',(-11.96986421771,-0.890216372315,3.4054903563)
  );
#406 = CARTESIAN_POINT('',(-11.98399590475,-0.689068529713,
    3.306699752469));
#407 = CARTESIAN_POINT('',(-11.99450008051,-0.469744083095,
    3.236664821452));
#408 = CARTESIAN_POINT('',(-12.,-0.237842602341,3.2));
#409 = CARTESIAN_POINT('',(-12.,0.217915214832,3.2));
#410 = CARTESIAN_POINT('',(-11.99538310208,0.431422441209,3.230778454686
    ));
#411 = CARTESIAN_POINT('',(-11.98648627403,0.635117646748,3.290095282153
    ));
#412 = CARTESIAN_POINT('',(-11.9743083834,0.824254321738,3.374509357267)
  );
#413 = CARTESIAN_POINT('',(-11.96032027153,0.995007253225,3.479444391784
    ));
#414 = CARTESIAN_POINT('',(-11.94595942975,1.14482144873,3.599237036458)
  );
#415 = CARTESIAN_POINT('',(-11.91584254426,1.427164461531,3.881580049259
    ));
#416 = CARTESIAN_POINT('',(-11.89999372471,1.553652678427,4.051754736441
    ));
#417 = CARTESIAN_POINT('',(-11.88618520018,1.653163260583,4.232492357938
    ));
#418 = CARTESIAN_POINT('',(-11.87533419984,1.726823877424,4.420137834292
    ));
#419 = CARTESIAN_POINT('',(-11.8679363765,1.775582958262,4.61198512264)
  );
#420 = CARTESIAN_POINT('',(-11.86423195997,1.8,4.805904672169));
#421 = CARTESIAN_POINT('',(-11.86423195997,1.8,5.));
#422 = PCURVE('',#252,#423);
#423 = DEFINITIONAL_REPRESENTATION('',(#424),#481);
#424 = B_SPLINE_CURVE_WITH_KNOTS('',7,(#425,#426,#427,#428,#429,#430,
    #431,#432,#433,#434,#435,#436,#437,#438,#439,#440,#441,#442,#443,
    #444,#445,#446,#447,#448,#449,#450,#451,#452,#453,#454,#455,#456,
    #457,#458,#459,#460,#461,#462,#463,#464,#465,#466,#467,#468,#469,
    #470,#471,#472,#473,#474,#475,#476,#477,#478,#479,#480),
  .UNSPECIFIED.,.F.,.F.,(8,6,6,6,6,6,6,6,6,8),(0.,0.126357415958,
    0.216083998213,0.302441715599,0.406163834404,0.501146048636,
    0.627749690908,0.750952000172,0.863831936007,1.),.UNSPECIFIED.);
#425 = CARTESIAN_POINT('',(0.,-11.86423195997));
#426 = CARTESIAN_POINT('',(9.97851432068E-02,-11.86423195997));
#427 = CARTESIAN_POINT('',(0.199502577814,-11.8674042561));
#428 = CARTESIAN_POINT('',(0.29991245469,-11.87374165402));
#429 = CARTESIAN_POINT('',(0.401687004264,-11.88306446822));
#430 = CARTESIAN_POINT('',(0.505532968554,-11.8950062467));
#431 = CARTESIAN_POINT('',(0.612180739298,-11.90891903021));
#432 = CARTESIAN_POINT('',(0.800951262594,-11.93436367938));
#433 = CARTESIAN_POINT('',(0.881700404764,-11.94548112296));
#434 = CARTESIAN_POINT('',(0.964688003926,-11.95673402494));
#435 = CARTESIAN_POINT('',(1.049882898214,-11.9675894377));
#436 = CARTESIAN_POINT('',(1.137321675288,-11.97743365924));
#437 = CARTESIAN_POINT('',(1.227112403324,-11.98563704371));
#438 = CARTESIAN_POINT('',(1.408357817787,-11.99743286579));
#439 = CARTESIAN_POINT('',(1.499012800759,-12.00114721556));
#440 = CARTESIAN_POINT('',(1.590456644323,-12.00227602413));
#441 = CARTESIAN_POINT('',(1.681888463412,-12.00057184575));
#442 = CARTESIAN_POINT('',(1.772544605314,-11.99619433129));
#443 = CARTESIAN_POINT('',(1.861553926111,-11.98967276507));
#444 = CARTESIAN_POINT('',(2.051360392557,-11.9721052139));
#445 = CARTESIAN_POINT('',(2.151128358514,-11.96039481118));
#446 = CARTESIAN_POINT('',(2.247635088533,-11.94750313032));
#447 = CARTESIAN_POINT('',(2.34126284195,-11.93432422506));
#448 = CARTESIAN_POINT('',(2.432303058339,-11.92160056523));
#449 = CARTESIAN_POINT('',(2.520993504557,-11.9098841282));
#450 = CARTESIAN_POINT('',(2.686759184975,-11.89010829424));
#451 = CARTESIAN_POINT('',(2.76448707451,-11.8817873918));
#452 = CARTESIAN_POINT('',(2.841051175109,-11.87488319674));
#453 = CARTESIAN_POINT('',(2.916754347169,-11.86958716631));
#454 = CARTESIAN_POINT('',(2.991884212072,-11.86601757901));
#455 = CARTESIAN_POINT('',(3.066730558951,-11.86423195997));
#456 = CARTESIAN_POINT('',(3.241377796797,-11.86423195997));
#457 = CARTESIAN_POINT('',(3.341095231404,-11.8674042561));
#458 = CARTESIAN_POINT('',(3.441505108279,-11.87374165402));
#459 = CARTESIAN_POINT('',(3.543279657854,-11.88306446822));
#460 = CARTESIAN_POINT('',(3.647125622144,-11.8950062467));
#461 = CARTESIAN_POINT('',(3.753773392888,-11.90891903021));
#462 = CARTESIAN_POINT('',(3.97157891658,-11.93827734866));
#463 = CARTESIAN_POINT('',(4.085244301854,-11.95403624649));
#464 = CARTESIAN_POINT('',(4.203598866563,-11.96986421771));
#465 = CARTESIAN_POINT('',(4.325804695178,-11.98399590475));
#466 = CARTESIAN_POINT('',(4.451420151492,-11.99450008051));
#467 = CARTESIAN_POINT('',(4.580254201306,-12.));
#468 = CARTESIAN_POINT('',(4.833452988625,-12.));
#469 = CARTESIAN_POINT('',(4.952067992648,-11.99538310208));
#470 = CARTESIAN_POINT('',(5.06813071235,-11.98648627403));
#471 = CARTESIAN_POINT('',(5.181372272652,-11.9743083834));
#472 = CARTESIAN_POINT('',(5.291332144674,-11.96032027153));
#473 = CARTESIAN_POINT('',(5.397243821165,-11.94595942975));
#474 = CARTESIAN_POINT('',(5.619073442246,-11.91584254426));
#475 = CARTESIAN_POINT('',(5.735613829229,-11.89999372471));
#476 = CARTESIAN_POINT('',(5.848618527833,-11.88618520018));
#477 = CARTESIAN_POINT('',(5.958990887142,-11.87533419984));
#478 = CARTESIAN_POINT('',(6.067621748401,-11.8679363765));
#479 = CARTESIAN_POINT('',(6.175354569495,-11.86423195997));
#480 = CARTESIAN_POINT('',(6.28318530718,-11.86423195997));
#481 = ( GEOMETRIC_REPRESENTATION_CONTEXT(2) 
PARAMETRIC_REPRESENTATION_CONTEXT() REPRESENTATION_CONTEXT('2D SPACE',''
  ) );
#482 = PCURVE('',#483,#488);
#483 = CYLINDRICAL_SURFACE('',#484,12.);
#484 = AXIS2_PLACEMENT_3D('',#485,#486,#487);
#485 = CARTESIAN_POINT('',(0.,0.,9.));
#486 = DIRECTION('',(0.,0.,1.));
#487 = DIRECTION('',(1.,0.,0.));
#488 = DEFINITIONAL_REPRESENTATION('',(#489),#546);
#489 = B_SPLINE_CURVE_WITH_KNOTS('',7,(#490,#491,#492,#493,#494,#495,
    #496,#497,#498,#499,#500,#501,#502,#503,#504,#505,#506,#507,#508,
    #509,#510,#511,#512,#513,#514,#515,#516,#517,#518,#519,#520,#521,
    #522,#523,#524,#525,#526,#527,#528,#529,#530,#531,#532,#533,#534,
    #535,#536,#537,#538,#539,#540,#541,#542,#543,#544,#545),
  .UNSPECIFIED.,.T.,.F.,(8,6,6,6,6,6,6,6,6,8),(0.,0.126357415958,
    0.216083998213,0.302441715599,0.406163834404,0.501146048636,
    0.627749690908,0.750952000172,0.863831936007,1.),.UNSPECIFIED.);
#490 = CARTESIAN_POINT('',(2.991024380813,-4.));
#491 = CARTESIAN_POINT('',(2.991024380813,-3.820386742228));
#492 = CARTESIAN_POINT('',(2.992786779191,-3.640895108514));
#493 = CARTESIAN_POINT('',(2.996307496081,-3.463079566787));
#494 = CARTESIAN_POINT('',(3.00161596414,-3.288628694094));
#495 = CARTESIAN_POINT('',(3.008764302708,-3.11959857121));
#496 = CARTESIAN_POINT('',(3.01781734906,-2.958681232176));
#497 = CARTESIAN_POINT('',(3.036662446509,-2.703803285718));
#498 = CARTESIAN_POINT('',(3.045527286241,-2.603309113842));
#499 = CARTESIAN_POINT('',(3.055425783554,-2.510311726887));
#500 = CARTESIAN_POINT('',(3.066324056086,-2.426967510512));
#501 = CARTESIAN_POINT('',(3.078162028321,-2.355436179148));
#502 = CARTESIAN_POINT('',(3.090852923418,-2.29789294459));
#503 = CARTESIAN_POINT('',(3.117203952658,-2.21675992158));
#504 = CARTESIAN_POINT('',(3.13072108564,-2.192250207677));
#505 = CARTESIAN_POINT('',(3.144549464931,-2.185122512213));
#506 = CARTESIAN_POINT('',(3.158377915259,-2.196148324133));
#507 = CARTESIAN_POINT('',(3.17189107562,-2.224800936979));
#508 = CARTESIAN_POINT('',(3.184794374215,-2.269261909231));
#509 = CARTESIAN_POINT('',(3.211306462521,-2.395032266233));
#510 = CARTESIAN_POINT('',(3.224563248083,-2.482085630509));
#511 = CARTESIAN_POINT('',(3.236525466863,-2.583954516049));
#512 = CARTESIAN_POINT('',(3.247154782884,-2.69756898331));
#513 = CARTESIAN_POINT('',(3.256442930567,-2.820257287896));
#514 = CARTESIAN_POINT('',(3.264402636657,-2.949663920131));
#515 = CARTESIAN_POINT('',(3.277166710069,-3.206490598118));
#516 = CARTESIAN_POINT('',(3.282203748482,-3.333628409756));
#517 = CARTESIAN_POINT('',(3.286202764222,-3.463957735569));
#518 = CARTESIAN_POINT('',(3.289185762293,-3.596523558208));
#519 = CARTESIAN_POINT('',(3.291168934389,-3.730525203315));
#520 = CARTESIAN_POINT('',(3.292160926366,-3.865248229651));
#521 = CARTESIAN_POINT('',(3.292160926366,-4.179613257772));
#522 = CARTESIAN_POINT('',(3.290398527989,-4.359104891487));
#523 = CARTESIAN_POINT('',(3.286877811099,-4.536920433213));
#524 = CARTESIAN_POINT('',(3.28156934304,-4.711371305906));
#525 = CARTESIAN_POINT('',(3.274421004472,-4.88040142879));
#526 = CARTESIAN_POINT('',(3.265367958119,-5.041318767824));
#527 = CARTESIAN_POINT('',(3.243624275647,-5.335399769649));
#528 = CARTESIAN_POINT('',(3.230767826406,-5.472846135091));
#529 = CARTESIAN_POINT('',(3.215825536847,-5.5945096437));
#530 = CARTESIAN_POINT('',(3.199027681334,-5.693300247531));
#531 = CARTESIAN_POINT('',(3.180738008521,-5.763335178548));
#532 = CARTESIAN_POINT('',(3.161412870452,-5.8));
#533 = CARTESIAN_POINT('',(3.123433052354,-5.8));
#534 = CARTESIAN_POINT('',(3.105640773672,-5.769221545314));
#535 = CARTESIAN_POINT('',(3.088656446047,-5.709904717847));
#536 = CARTESIAN_POINT('',(3.072867336305,-5.625490642733));
#537 = CARTESIAN_POINT('',(3.058592492679,-5.520555608216));
#538 = CARTESIAN_POINT('',(3.04605147604,-5.400762963542));
#539 = CARTESIAN_POINT('',(3.022389416091,-5.118419950741));
#540 = CARTESIAN_POINT('',(3.011768105744,-4.948245263559));
#541 = CARTESIAN_POINT('',(3.003396743432,-4.767507642062));
#542 = CARTESIAN_POINT('',(2.997192176935,-4.579862165708));
#543 = CARTESIAN_POINT('',(2.993082418259,-4.38801487736));
#544 = CARTESIAN_POINT('',(2.991024380813,-4.194095327831));
#545 = CARTESIAN_POINT('',(2.991024380813,-4.));
#546 = ( GEOMETRIC_REPRESENTATION_CONTEXT(2) 
PARAMETRIC_REPRESENTATION_CONTEXT() REPRESENTATION_CONTEXT('2D SPACE',''
  ) );
#547 = ORIENTED_EDGE('',*,*,#548,.T.);
#548 = EDGE_CURVE('',#362,#127,#549,.T.);
#549 = SEAM_CURVE('',#550,(#554,#561),.PCURVE_S1.);
#550 = LINE('',#551,#552);
#551 = CARTESIAN_POINT('',(0.,1.8,5.));
#552 = VECTOR('',#553,1.);
#553 = DIRECTION('',(-1.,-0.,-0.));
#554 = PCURVE('',#252,#555);
#555 = DEFINITIONAL_REPRESENTATION('',(#556),#560);
#556 = LINE('',#557,#558);
#557 = CARTESIAN_POINT('',(6.28318530718,0.));
#558 = VECTOR('',#559,1.);
#559 = DIRECTION('',(0.,-1.));
#560 = ( GEOMETRIC_REPRESENTATION_CONTEXT(2) 
PARAMETRIC_REPRESENTATION_CONTEXT() REPRESENTATION_CONTEXT('2D SPACE',''
  ) );
#561 = PCURVE('',#252,#562);
#562 = DEFINITIONAL_REPRESENTATION('',(#563),#567);
#563 = LINE('',#564,#565);
#564 = CARTESIAN_POINT('',(0.,0.));
#565 = VECTOR('',#566,1.);
#566 = DIRECTION('',(0.,-1.));
#567 = ( GEOMETRIC_REPRESENTATION_CONTEXT(2) 
PARAMETRIC_REPRESENTATION_CONTEXT() REPRESENTATION_CONTEXT('2D SPACE',''
  ) );
#568 = ORIENTED_EDGE('',*,*,#126,.T.);
#569 = ORIENTED_EDGE('',*,*,#548,.F.);
#570 = ADVANCED_FACE('',(#571),#346,.F.);
#571 = FACE_BOUND('',#572,.F.);
#572 = EDGE_LOOP('',(#573,#596,#623,#624));
#573 = ORIENTED_EDGE('',*,*,#574,.T.);
#574 = EDGE_CURVE('',#330,#575,#577,.T.);
#575 = VERTEX_POINT('',#576);
#576 = CARTESIAN_POINT('',(12.7,0.,7.3));
#577 = SEAM_CURVE('',#578,(#582,#589),.PCURVE_S1.);
#578 = LINE('',#579,#580);
#579 = CARTESIAN_POINT('',(12.7,0.,9.));
#580 = VECTOR('',#581,1.);
#581 = DIRECTION('',(-0.,-0.,-1.));
#582 = PCURVE('',#346,#583);
#583 = DEFINITIONAL_REPRESENTATION('',(#584),#588);
#584 = LINE('',#585,#586);
#585 = CARTESIAN_POINT('',(0.,0.));
#586 = VECTOR('',#587,1.);
#587 = DIRECTION('',(0.,-1.));
#588 = ( GEOMETRIC_REPRESENTATION_CONTEXT(2) 
PARAMETRIC_REPRESENTATION_CONTEXT() REPRESENTATION_CONTEXT('2D SPACE',''
  ) );
#589 = PCURVE('',#346,#590);
#590 = DEFINITIONAL_REPRESENTATION('',(#591),#595);
#591 = LINE('',#592,#593);
#592 = CARTESIAN_POINT('',(6.28318530718,0.));
#593 = VECTOR('',#594,1.);
#594 = DIRECTION('',(0.,-1.));
#595 = ( GEOMETRIC_REPRESENTATION_CONTEXT(2) 
PARAMETRIC_REPRESENTATION_CONTEXT() REPRESENTATION_CONTEXT('2D SPACE',''
  ) );
#596 = ORIENTED_EDGE('',*,*,#597,.T.);
#597 = EDGE_CURVE('',#575,#575,#598,.T.);
#598 = SURFACE_CURVE('',#599,(#604,#611),.PCURVE_S1.);
#599 = CIRCLE('',#600,12.7);
#600 = AXIS2_PLACEMENT_3D('',#601,#602,#603);
#601 = CARTESIAN_POINT('',(0.,0.,7.3));
#602 = DIRECTION('',(0.,0.,1.));
#603 = DIRECTION('',(1.,0.,0.));
#604 = PCURVE('',#346,#605);
#605 = DEFINITIONAL_REPRESENTATION('',(#606),#610);
#606 = LINE('',#607,#608);
#607 = CARTESIAN_POINT('',(0.,-1.7));
#608 = VECTOR('',#609,1.);
#609 = DIRECTION('',(1.,0.));
#610 = ( GEOMETRIC_REPRESENTATION_CONTEXT(2) 
PARAMETRIC_REPRESENTATION_CONTEXT() REPRESENTATION_CONTEXT('2D SPACE',''
  ) );
#611 = PCURVE('',#612,#617);
#612 = PLANE('',#613);
#613 = AXIS2_PLACEMENT_3D('',#614,#615,#616);
#614 = CARTESIAN_POINT('',(-4.306898055242E-16,1.204325410458E-15,7.3));
#615 = DIRECTION('',(0.,0.,1.));
#616 = DIRECTION('',(1.,0.,0.));
#617 = DEFINITIONAL_REPRESENTATION('',(#618),#622);
#618 = CIRCLE('',#619,12.7);
#619 = AXIS2_PLACEMENT_2D('',#620,#621);
#620 = CARTESIAN_POINT('',(4.306898055242E-16,-1.204325410458E-15));
#621 = DIRECTION('',(1.,0.));
#622 = ( GEOMETRIC_REPRESENTATION_CONTEXT(2) 
PARAMETRIC_REPRESENTATION_CONTEXT() REPRESENTATION_CONTEXT('2D SPACE',''
  ) );
#623 = ORIENTED_EDGE('',*,*,#574,.F.);
#624 = ORIENTED_EDGE('',*,*,#329,.F.);
#625 = ADVANCED_FACE('',(#626,#703),#483,.F.);
#626 = FACE_BOUND('',#627,.F.);
#627 = EDGE_LOOP('',(#628,#653,#675,#676));
#628 = ORIENTED_EDGE('',*,*,#629,.F.);
#629 = EDGE_CURVE('',#630,#632,#634,.T.);
#630 = VERTEX_POINT('',#631);
#631 = CARTESIAN_POINT('',(12.,0.,7.3));
#632 = VERTEX_POINT('',#633);
#633 = CARTESIAN_POINT('',(12.,0.,1.));
#634 = SEAM_CURVE('',#635,(#639,#646),.PCURVE_S1.);
#635 = LINE('',#636,#637);
#636 = CARTESIAN_POINT('',(12.,0.,9.));
#637 = VECTOR('',#638,1.);
#638 = DIRECTION('',(-0.,-0.,-1.));
#639 = PCURVE('',#483,#640);
#640 = DEFINITIONAL_REPRESENTATION('',(#641),#645);
#641 = LINE('',#642,#643);
#642 = CARTESIAN_POINT('',(6.28318530718,0.));
#643 = VECTOR('',#644,1.);
#644 = DIRECTION('',(0.,-1.));
#645 = ( GEOMETRIC_REPRESENTATION_CONTEXT(2) 
PARAMETRIC_REPRESENTATION_CONTEXT() REPRESENTATION_CONTEXT('2D SPACE',''
  ) );
#646 = PCURVE('',#483,#647);
#647 = DEFINITIONAL_REPRESENTATION('',(#648),#652);
#648 = LINE('',#649,#650);
#649 = CARTESIAN_POINT('',(0.,0.));
#650 = VECTOR('',#651,1.);
#651 = DIRECTION('',(0.,-1.));
#652 = ( GEOMETRIC_REPRESENTATION_CONTEXT(2) 
PARAMETRIC_REPRESENTATION_CONTEXT() REPRESENTATION_CONTEXT('2D SPACE',''
  ) );
#653 = ORIENTED_EDGE('',*,*,#654,.F.);
#654 = EDGE_CURVE('',#630,#630,#655,.T.);
#655 = SURFACE_CURVE('',#656,(#661,#668),.PCURVE_S1.);
#656 = CIRCLE('',#657,12.);
#657 = AXIS2_PLACEMENT_3D('',#658,#659,#660);
#658 = CARTESIAN_POINT('',(0.,0.,7.3));
#659 = DIRECTION('',(0.,0.,1.));
#660 = DIRECTION('',(1.,0.,0.));
#661 = PCURVE('',#483,#662);
#662 = DEFINITIONAL_REPRESENTATION('',(#663),#667);
#663 = LINE('',#664,#665);
#664 = CARTESIAN_POINT('',(0.,-1.7));
#665 = VECTOR('',#666,1.);
#666 = DIRECTION('',(1.,0.));
#667 = ( GEOMETRIC_REPRESENTATION_CONTEXT(2) 
PARAMETRIC_REPRESENTATION_CONTEXT() REPRESENTATION_CONTEXT('2D SPACE',''
  ) );
#668 = PCURVE('',#612,#669);
#669 = DEFINITIONAL_REPRESENTATION('',(#670),#674);
#670 = CIRCLE('',#671,12.);
#671 = AXIS2_PLACEMENT_2D('',#672,#673);
#672 = CARTESIAN_POINT('',(4.306898055242E-16,-1.204325410458E-15));
#673 = DIRECTION('',(1.,0.));
#674 = ( GEOMETRIC_REPRESENTATION_CONTEXT(2) 
PARAMETRIC_REPRESENTATION_CONTEXT() REPRESENTATION_CONTEXT('2D SPACE',''
  ) );
#675 = ORIENTED_EDGE('',*,*,#629,.T.);
#676 = ORIENTED_EDGE('',*,*,#677,.T.);
#677 = EDGE_CURVE('',#632,#632,#678,.T.);
#678 = SURFACE_CURVE('',#679,(#684,#691),.PCURVE_S1.);
#679 = CIRCLE('',#680,12.);
#680 = AXIS2_PLACEMENT_3D('',#681,#682,#683);
#681 = CARTESIAN_POINT('',(0.,0.,1.));
#682 = DIRECTION('',(0.,0.,1.));
#683 = DIRECTION('',(1.,0.,0.));
#684 = PCURVE('',#483,#685);
#685 = DEFINITIONAL_REPRESENTATION('',(#686),#690);
#686 = LINE('',#687,#688);
#687 = CARTESIAN_POINT('',(0.,-8.));
#688 = VECTOR('',#689,1.);
#689 = DIRECTION('',(1.,0.));
#690 = ( GEOMETRIC_REPRESENTATION_CONTEXT(2) 
PARAMETRIC_REPRESENTATION_CONTEXT() REPRESENTATION_CONTEXT('2D SPACE',''
  ) );
#691 = PCURVE('',#692,#697);
#692 = PLANE('',#693);
#693 = AXIS2_PLACEMENT_3D('',#694,#695,#696);
#694 = CARTESIAN_POINT('',(-6.837200662697E-16,4.217680353673E-16,1.));
#695 = DIRECTION('',(0.,0.,1.));
#696 = DIRECTION('',(1.,0.,0.));
#697 = DEFINITIONAL_REPRESENTATION('',(#698),#702);
#698 = CIRCLE('',#699,12.);
#699 = AXIS2_PLACEMENT_2D('',#700,#701);
#700 = CARTESIAN_POINT('',(6.837200662697E-16,-4.217680353673E-16));
#701 = DIRECTION('',(1.,0.));
#702 = ( GEOMETRIC_REPRESENTATION_CONTEXT(2) 
PARAMETRIC_REPRESENTATION_CONTEXT() REPRESENTATION_CONTEXT('2D SPACE',''
  ) );
#703 = FACE_BOUND('',#704,.F.);
#704 = EDGE_LOOP('',(#705));
#705 = ORIENTED_EDGE('',*,*,#361,.T.);
#706 = ADVANCED_FACE('',(#707,#710),#612,.T.);
#707 = FACE_BOUND('',#708,.T.);
#708 = EDGE_LOOP('',(#709));
#709 = ORIENTED_EDGE('',*,*,#597,.T.);
#710 = FACE_BOUND('',#711,.T.);
#711 = EDGE_LOOP('',(#712));
#712 = ORIENTED_EDGE('',*,*,#654,.F.);
#713 = ADVANCED_FACE('',(#714),#692,.T.);
#714 = FACE_BOUND('',#715,.T.);
#715 = EDGE_LOOP('',(#716));
#716 = ORIENTED_EDGE('',*,*,#677,.T.);
#717 = ( GEOMETRIC_REPRESENTATION_CONTEXT(3) 
GLOBAL_UNCERTAINTY_ASSIGNED_CONTEXT((#721)) GLOBAL_UNIT_ASSIGNED_CONTEXT
((#718,#719,#720)) REPRESENTATION_CONTEXT('Context #1',
  '3D Context with UNIT and UNCERTAINTY') );
#718 = ( LENGTH_UNIT() NAMED_UNIT(*) SI_UNIT(.MILLI.,.METRE.) );
#719 = ( NAMED_UNIT(*) PLANE_ANGLE_UNIT() SI_UNIT($,.RADIAN.) );
#720 = ( NAMED_UNIT(*) SI_UNIT($,.STERADIAN.) SOLID_ANGLE_UNIT() );
#721 = UNCERTAINTY_MEASURE_WITH_UNIT(LENGTH_MEASURE(1.E-07),#718,
  'distance_accuracy_value','confusion accuracy');
#722 = CONTEXT_DEPENDENT_SHAPE_REPRESENTATION(#723,#725);
#723 = ( REPRESENTATION_RELATIONSHIP('','',#32,#10) 
REPRESENTATION_RELATIONSHIP_WITH_TRANSFORMATION(#724) 
SHAPE_REPRESENTATION_RELATIONSHIP() );
#724 = ITEM_DEFINED_TRANSFORMATION('','',#11,#15);
#725 = PRODUCT_DEFINITION_SHAPE('Placement','Placement of an item',#726
  );
#726 = NEXT_ASSEMBLY_USAGE_OCCURRENCE('1','Body002','',#5,#27,$);
#727 = PRODUCT_TYPE('part',$,(#29));
#728 = MECHANICAL_DESIGN_GEOMETRIC_PRESENTATION_REPRESENTATION('',(#729)
  ,#717);
#729 = STYLED_ITEM('color',(#730),#33);
#730 = PRESENTATION_STYLE_ASSIGNMENT((#731,#737));
#731 = SURFACE_STYLE_USAGE(.BOTH.,#732);
#732 = SURFACE_SIDE_STYLE('',(#733));
#733 = SURFACE_STYLE_FILL_AREA(#734);
#734 = FILL_AREA_STYLE('',(#735));
#735 = FILL_AREA_STYLE_COLOUR('',#736);
#736 = COLOUR_RGB('',0.447058818107,0.474509808674,0.501960817233);
#737 = CURVE_STYLE('',#738,POSITIVE_LENGTH_MEASURE(0.1),#739);
#738 = DRAUGHTING_PRE_DEFINED_CURVE_FONT('continuous');
#739 = COLOUR_RGB('',9.803921802644E-02,9.803921802644E-02,
  9.803921802644E-02);
ENDSEC;
END-ISO-10303-21;
