ISO-10303-21;
HEADER;
FILE_DESCRIPTION(('FreeCAD Model'),'2;1');
FILE_NAME('Open CASCADE Shape Model','2026-04-22T11:15:54',(''),(''),
  'Open CASCADE STEP processor 7.8','FreeCAD','Unknown');
FILE_SCHEMA(('AUTOMOTIVE_DESIGN_CC2 { 1 2 10303 214 -1 1 5 4 }'));
ENDSEC;
DATA;
#1 = APPLICATION_PROTOCOL_DEFINITION('committee draft',
  'automotive_design',1997,#2);
#2 = APPLICATION_CONTEXT(
  'core data for automotive mechanical design processes');
#3 = SHAPE_DEFINITION_REPRESENTATION(#4,#10);
#4 = PRODUCT_DEFINITION_SHAPE('','',#5);
#5 = PRODUCT_DEFINITION('design','',#6,#9);
#6 = PRODUCT_DEFINITION_FORMATION('','',#7);
#7 = PRODUCT('Enclosure','Enclosure','',(#8));
#8 = MECHANICAL_CONTEXT('',#2,'mechanical');
#9 = PRODUCT_DEFINITION_CONTEXT('part definition',#2,'design');
#10 = SHAPE_REPRESENTATION('',(#11,#15),#19);
#11 = AXIS2_PLACEMENT_3D('',#12,#13,#14);
#12 = CARTESIAN_POINT('',(0.,0.,0.));
#13 = DIRECTION('',(0.,0.,1.));
#14 = DIRECTION('',(1.,0.,-0.));
#15 = AXIS2_PLACEMENT_3D('',#16,#17,#18);
#16 = CARTESIAN_POINT('',(0.,0.,0.));
#17 = DIRECTION('',(0.,0.,1.));
#18 = DIRECTION('',(1.,0.,0.));
#19 = ( GEOMETRIC_REPRESENTATION_CONTEXT(3) 
GLOBAL_UNCERTAINTY_ASSIGNED_CONTEXT((#23)) GLOBAL_UNIT_ASSIGNED_CONTEXT(
(#20,#21,#22)) REPRESENTATION_CONTEXT('Context #1',
  '3D Context with UNIT and UNCERTAINTY') );
#20 = ( LENGTH_UNIT() NAMED_UNIT(*) SI_UNIT(.MILLI.,.METRE.) );
#21 = ( NAMED_UNIT(*) PLANE_ANGLE_UNIT() SI_UNIT($,.RADIAN.) );
#22 = ( NAMED_UNIT(*) SI_UNIT($,.STERADIAN.) SOLID_ANGLE_UNIT() );
#23 = UNCERTAINTY_MEASURE_WITH_UNIT(LENGTH_MEASURE(1.E-07),#20,
  'distance_accuracy_value','confusion accuracy');
#24 = PRODUCT_TYPE('part',$,(#7));
#25 = SHAPE_DEFINITION_REPRESENTATION(#26,#32);
#26 = PRODUCT_DEFINITION_SHAPE('','',#27);
#27 = PRODUCT_DEFINITION('design','',#28,#31);
#28 = PRODUCT_DEFINITION_FORMATION('','',#29);
#29 = PRODUCT('Body002','Body002','',(#30));
#30 = MECHANICAL_CONTEXT('',#2,'mechanical');
#31 = PRODUCT_DEFINITION_CONTEXT('part definition',#2,'design');
#32 = ADVANCED_BREP_SHAPE_REPRESENTATION('',(#11,#33),#717);
#33 = MANIFOLD_SOLID_BREP('',#34);
#34 = CLOSED_SHELL('',(#35,#318,#322,#357,#570,#625,#706,#713));
#35 = ADVANCED_FACE('',(#36,#123),#49,.T.);
#36 = FACE_BOUND('',#37,.F.);
#37 = EDGE_LOOP('',(#38,#72,#95,#122));
#38 = ORIENTED_EDGE('',*,*,#39,.F.);
#39 = EDGE_CURVE('',#40,#40,#42,.T.);
#40 = VERTEX_POINT('',#41);
#41 = CARTESIAN_POINT('',(13.5,0.,0.));
#42 = SURFACE_CURVE('',#43,(#48,#60),.PCURVE_S1.);
#43 = CIRCLE('',#44,13.5);
#44 = AXIS2_PLACEMENT_3D('',#45,#46,#47);
#45 = CARTESIAN_POINT('',(0.,0.,0.));
#46 = DIRECTION('',(0.,0.,1.));
#47 = DIRECTION('',(1.,0.,0.));
#48 = PCURVE('',#49,#54);
#49 = CYLINDRICAL_SURFACE('',#50,13.5);
#50 = AXIS2_PLACEMENT_3D('',#51,#52,#53);
#51 = CARTESIAN_POINT('',(0.,0.,0.));
#52 = DIRECTION('',(-0.,-0.,-1.));
#53 = DIRECTION('',(1.,0.,0.));
#54 = DEFINITIONAL_REPRESENTATION('',(#55),#59);
#55 = LINE('',#56,#57);
#56 = CARTESIAN_POINT('',(-0.,0.));
#57 = VECTOR('',#58,1.);
#58 = DIRECTION('',(-1.,0.));
#59 = ( GEOMETRIC_REPRESENTATION_CONTEXT(2) 
PARAMETRIC_REPRESENTATION_CONTEXT() REPRESENTATION_CONTEXT('2D SPACE',''
  ) );
#60 = PCURVE('',#61,#66);
#61 = PLANE('',#62);
#62 = AXIS2_PLACEMENT_3D('',#63,#64,#65);
#63 = CARTESIAN_POINT('',(-1.215502340035E-15,-5.510910596163E-16,0.));
#64 = DIRECTION('',(0.,0.,1.));
#65 = DIRECTION('',(1.,0.,0.));
#66 = DEFINITIONAL_REPRESENTATION('',(#67),#71);
#67 = CIRCLE('',#68,13.5);
#68 = AXIS2_PLACEMENT_2D('',#69,#70);
#69 = CARTESIAN_POINT('',(1.215502340035E-15,5.510910596163E-16));
#70 = DIRECTION('',(1.,0.));
#71 = ( GEOMETRIC_REPRESENTATION_CONTEXT(2) 
PARAMETRIC_REPRESENTATION_CONTEXT() REPRESENTATION_CONTEXT('2D SPACE',''
  ) );
#72 = ORIENTED_EDGE('',*,*,#73,.T.);
#73 = EDGE_CURVE('',#40,#74,#76,.T.);
#74 = VERTEX_POINT('',#75);
#75 = CARTESIAN_POINT('',(13.5,0.,9.));
#76 = SEAM_CURVE('',#77,(#81,#88),.PCURVE_S1.);
#77 = LINE('',#78,#79);
#78 = CARTESIAN_POINT('',(13.5,0.,0.));
#79 = VECTOR('',#80,1.);
#80 = DIRECTION('',(0.,0.,1.));
#81 = PCURVE('',#49,#82);
#82 = DEFINITIONAL_REPRESENTATION('',(#83),#87);
#83 = LINE('',#84,#85);
#84 = CARTESIAN_POINT('',(-6.28318530718,0.));
#85 = VECTOR('',#86,1.);
#86 = DIRECTION('',(-0.,-1.));
#87 = ( GEOMETRIC_REPRESENTATION_CONTEXT(2) 
PARAMETRIC_REPRESENTATION_CONTEXT() REPRESENTATION_CONTEXT('2D SPACE',''
  ) );
#88 = PCURVE('',#49,#89);
#89 = DEFINITIONAL_REPRESENTATION('',(#90),#94);
#90 = LINE('',#91,#92);
#91 = CARTESIAN_POINT('',(-0.,0.));
#92 = VECTOR('',#93,1.);
#93 = DIRECTION('',(-0.,-1.));
#94 = ( GEOMETRIC_REPRESENTATION_CONTEXT(2) 
PARAMETRIC_REPRESENTATION_CONTEXT() REPRESENTATION_CONTEXT('2D SPACE',''
  ) );
#95 = ORIENTED_EDGE('',*,*,#96,.T.);
#96 = EDGE_CURVE('',#74,#74,#97,.T.);
#97 = SURFACE_CURVE('',#98,(#103,#110),.PCURVE_S1.);
#98 = CIRCLE('',#99,13.5);
#99 = AXIS2_PLACEMENT_3D('',#100,#101,#102);
#100 = CARTESIAN_POINT('',(0.,0.,9.));
#101 = DIRECTION('',(0.,0.,1.));
#102 = DIRECTION('',(1.,0.,0.));
#103 = PCURVE('',#49,#104);
#104 = DEFINITIONAL_REPRESENTATION('',(#105),#109);
#105 = LINE('',#106,#107);
#106 = CARTESIAN_POINT('',(-0.,-9.));
#107 = VECTOR('',#108,1.);
#108 = DIRECTION('',(-1.,0.));
#109 = ( GEOMETRIC_REPRESENTATION_CONTEXT(2) 
PARAMETRIC_REPRESENTATION_CONTEXT() REPRESENTATION_CONTEXT('2D SPACE',''
  ) );
#110 = PCURVE('',#111,#116);
#111 = PLANE('',#112);
#112 = AXIS2_PLACEMENT_3D('',#113,#114,#115);
#113 = CARTESIAN_POINT('',(-1.215502340035E-15,-5.510910596163E-16,9.));
#114 = DIRECTION('',(0.,0.,1.));
#115 = DIRECTION('',(1.,0.,0.));
#116 = DEFINITIONAL_REPRESENTATION('',(#117),#121);
#117 = CIRCLE('',#118,13.5);
#118 = AXIS2_PLACEMENT_2D('',#119,#120);
#119 = CARTESIAN_POINT('',(1.215502340035E-15,5.510910596163E-16));
#120 = DIRECTION('',(1.,0.));
#121 = ( GEOMETRIC_REPRESENTATION_CONTEXT(2) 
PARAMETRIC_REPRESENTATION_CONTEXT() REPRESENTATION_CONTEXT('2D SPACE',''
  ) );
#122 = ORIENTED_EDGE('',*,*,#73,.F.);
#123 = FACE_BOUND('',#124,.F.);
#124 = EDGE_LOOP('',(#125));
#125 = ORIENTED_EDGE('',*,*,#126,.F.);
#126 = EDGE_CURVE('',#127,#127,#129,.T.);
#127 = VERTEX_POINT('',#128);
#128 = CARTESIAN_POINT('',(-13.3726399787,1.85,5.));
#129 = SURFACE_CURVE('',#130,(#189,#251),.PCURVE_S1.);
#130 = B_SPLINE_CURVE_WITH_KNOTS('',8,(#131,#132,#133,#134,#135,#136,
    #137,#138,#139,#140,#141,#142,#143,#144,#145,#146,#147,#148,#149,
    #150,#151,#152,#153,#154,#155,#156,#157,#158,#159,#160,#161,#162,
    #163,#164,#165,#166,#167,#168,#169,#170,#171,#172,#173,#174,#175,
    #176,#177,#178,#179,#180,#181,#182,#183,#184,#185,#186,#187,#188),
  .UNSPECIFIED.,.T.,.F.,(9,7,7,7,7,7,7,7,9),(0.,0.12575561294,
    0.214888688755,0.300602532445,0.431007438108,0.593343736688,
    0.714070769381,0.832516681621,1.),.UNSPECIFIED.);
#131 = CARTESIAN_POINT('',(-13.3726399787,1.85,5.));
#132 = CARTESIAN_POINT('',(-13.3726399787,1.85,5.161444019049));
#133 = CARTESIAN_POINT('',(-13.37486742872,1.833898860055,5.322792261925
    ));
#134 = CARTESIAN_POINT('',(-13.37931803524,1.801728331437,5.48306286083)
  );
#135 = CARTESIAN_POINT('',(-13.38590837446,1.753289866227,5.641203904374
    ));
#136 = CARTESIAN_POINT('',(-13.3944708931,1.688205179375,5.796001343149)
  );
#137 = CARTESIAN_POINT('',(-13.40472897576,1.605964557128,5.945977432392
    ));
#138 = CARTESIAN_POINT('',(-13.41626413584,1.505986898789,6.089263015336
    ));
#139 = CARTESIAN_POINT('',(-13.43715098424,1.303869962235,6.31851967837)
  );
#140 = CARTESIAN_POINT('',(-13.44620603329,1.210396109164,6.409531966973
    ));
#141 = CARTESIAN_POINT('',(-13.45540939598,1.107298866118,6.495075022357
    ));
#142 = CARTESIAN_POINT('',(-13.46446271416,0.994764856433,6.573758081611
    ));
#143 = CARTESIAN_POINT('',(-13.47302460722,0.873151032708,6.644187321435
    ));
#144 = CARTESIAN_POINT('',(-13.48072998903,0.742988666664,6.70496240172)
  );
#145 = CARTESIAN_POINT('',(-13.4872165045,0.60499267643,6.754670644473)
  );
#146 = CARTESIAN_POINT('',(-13.49691010275,0.320719040612,6.827659708554
    ));
#147 = CARTESIAN_POINT('',(-13.50020534236,0.175788010112,6.851668699032
    ));
#148 = CARTESIAN_POINT('',(-13.50174030411,2.748197437809E-02,
    6.862547902698));
#149 = CARTESIAN_POINT('',(-13.50133731828,-0.121802873691,6.85962633084
    ));
#150 = CARTESIAN_POINT('',(-13.49899449369,-0.269600813229,
    6.842908807875));
#151 = CARTESIAN_POINT('',(-13.49489343454,-0.413503474053,
    6.813070354229));
#152 = CARTESIAN_POINT('',(-13.4893647261,-0.551285703642,6.771456067069
    ));
#153 = CARTESIAN_POINT('',(-13.47284064856,-0.878423831632,
    6.641932919452));
#154 = CARTESIAN_POINT('',(-13.46049610515,-1.057260409241,
    6.541180484026));
#155 = CARTESIAN_POINT('',(-13.44691185009,-1.216476812779,
    6.422656184046));
#156 = CARTESIAN_POINT('',(-13.43313958007,-1.355779456221,
    6.290304231042));
#157 = CARTESIAN_POINT('',(-13.42002581082,-1.475320737965,6.14741127374
    ));
#158 = CARTESIAN_POINT('',(-13.40819622326,-1.575508625888,5.9967446415)
  );
#159 = CARTESIAN_POINT('',(-13.39808787597,-1.656894793215,
    5.840634452175));
#160 = CARTESIAN_POINT('',(-13.3798648422,-1.798751542579,5.482345202079
    ));
#161 = CARTESIAN_POINT('',(-13.37280368385,-1.849540023003,5.27743820127
    ));
#162 = CARTESIAN_POINT('',(-13.36931092404,-1.873539448505,
    5.069180438683));
#163 = CARTESIAN_POINT('',(-13.36962173597,-1.871241050859,
    4.859806990129));
#164 = CARTESIAN_POINT('',(-13.3737577651,-1.842633663453,4.651445288771
    ));
#165 = CARTESIAN_POINT('',(-13.38152805254,-1.787252625975,
    4.446393418011));
#166 = CARTESIAN_POINT('',(-13.39247163502,-1.704227546262,4.24740951227
    ));
#167 = CARTESIAN_POINT('',(-13.4156389629,-1.509188041618,3.917615720687
    ));
#168 = CARTESIAN_POINT('',(-13.42689669985,-1.409375316756,
    3.781248914203));
#169 = CARTESIAN_POINT('',(-13.43917188251,-1.292454334201,
    3.651674623168));
#170 = CARTESIAN_POINT('',(-13.45193002203,-1.158282855492,
    3.531593120162));
#171 = CARTESIAN_POINT('',(-13.46446968764,-1.007074296122,
    3.423909103128));
#172 = CARTESIAN_POINT('',(-13.47594980306,-0.839442005974,
    3.331756148738));
#173 = CARTESIAN_POINT('',(-13.48546001658,-0.65650329138,3.258555033542
    ));
#174 = CARTESIAN_POINT('',(-13.49872959549,-0.267360751915,
    3.158640211445));
#175 = CARTESIAN_POINT('',(-13.5024601692,-6.557463863981E-02,
    3.1320794247));
#176 = CARTESIAN_POINT('',(-13.50266586926,0.140131904627,3.131130331375
    ));
#177 = CARTESIAN_POINT('',(-13.49906417265,0.344105774296,3.156498058337
    ));
#178 = CARTESIAN_POINT('',(-13.49200374905,0.540685345891,3.206993826133
    ));
#179 = CARTESIAN_POINT('',(-13.48237153922,0.724718193486,3.279590621816
    ));
#180 = CARTESIAN_POINT('',(-13.47131187592,0.892040210062,3.369446620444
    ));
#181 = CARTESIAN_POINT('',(-13.44374515906,1.248864296571,3.611944019225
    ));
#182 = CARTESIAN_POINT('',(-13.42638744006,1.425242642502,3.779509362525
    ));
#183 = CARTESIAN_POINT('',(-13.40980413657,1.569467661606,3.964573484674
    ));
#184 = CARTESIAN_POINT('',(-13.39543609287,1.682847328573,4.161586100421
    ));
#185 = CARTESIAN_POINT('',(-13.38415978351,1.766726325979,4.366436274308
    ));
#186 = CARTESIAN_POINT('',(-13.37648312129,1.822220702122,4.576027313557
    ));
#187 = CARTESIAN_POINT('',(-13.3726399787,1.85,4.787944487198));
#188 = CARTESIAN_POINT('',(-13.3726399787,1.85,5.));
#189 = PCURVE('',#49,#190);
#190 = DEFINITIONAL_REPRESENTATION('',(#191),#250);
#191 = B_SPLINE_CURVE_WITH_KNOTS('',8,(#192,#193,#194,#195,#196,#197,
    #198,#199,#200,#201,#202,#203,#204,#205,#206,#207,#208,#209,#210,
    #211,#212,#213,#214,#215,#216,#217,#218,#219,#220,#221,#222,#223,
    #224,#225,#226,#227,#228,#229,#230,#231,#232,#233,#234,#235,#236,
    #237,#238,#239,#240,#241,#242,#243,#244,#245,#246,#247,#248,#249),
  .UNSPECIFIED.,.T.,.F.,(9,7,7,7,7,7,7,7,9),(0.,0.12575561294,
    0.214888688755,0.300602532445,0.431007438108,0.593343736688,
    0.714070769381,0.832516681621,1.),.UNSPECIFIED.);
#192 = CARTESIAN_POINT('',(-3.004123044486,-5.));
#193 = CARTESIAN_POINT('',(-3.004123044486,-5.161444019049));
#194 = CARTESIAN_POINT('',(-3.005327080078,-5.322792261925));
#195 = CARTESIAN_POINT('',(-3.007732779528,-5.48306286083));
#196 = CARTESIAN_POINT('',(-3.01135385946,-5.641203904374));
#197 = CARTESIAN_POINT('',(-3.016216386122,-5.796001343149));
#198 = CARTESIAN_POINT('',(-3.022355162892,-5.945977432392));
#199 = CARTESIAN_POINT('',(-3.029809517645,-6.089263015336));
#200 = CARTESIAN_POINT('',(-3.044860873076,-6.31851967837));
#201 = CARTESIAN_POINT('',(-3.051817127521,-6.409531966973));
#202 = CARTESIAN_POINT('',(-3.059483965718,-6.495075022357));
#203 = CARTESIAN_POINT('',(-3.067846057765,-6.573758081611));
#204 = CARTESIAN_POINT('',(-3.076875776182,-6.644187321435));
#205 = CARTESIAN_POINT('',(-3.086533184277,-6.70496240172));
#206 = CARTESIAN_POINT('',(-3.09676554182,-6.754670644473));
#207 = CARTESIAN_POINT('',(-3.117835087108,-6.827659708554));
#208 = CARTESIAN_POINT('',(-3.128572818704,-6.851668699032));
#209 = CARTESIAN_POINT('',(-3.139557575277,-6.862547902698));
#210 = CARTESIAN_POINT('',(-3.150613900021,-6.85962633084));
#211 = CARTESIAN_POINT('',(-3.161561507022,-6.842908807875));
#212 = CARTESIAN_POINT('',(-3.17222402441,-6.813070354229));
#213 = CARTESIAN_POINT('',(-3.182437800483,-6.771456067069));
#214 = CARTESIAN_POINT('',(-3.2067011476,-6.641932919452));
#215 = CARTESIAN_POINT('',(-3.219977558545,-6.541180484026));
#216 = CARTESIAN_POINT('',(-3.231811915632,-6.422656184046));
#217 = CARTESIAN_POINT('',(-3.242179512987,-6.290304231042));
#218 = CARTESIAN_POINT('',(-3.251086920469,-6.14741127374));
#219 = CARTESIAN_POINT('',(-3.258559547419,-5.9967446415));
#220 = CARTESIAN_POINT('',(-3.264634425395,-5.840634452175));
#221 = CARTESIAN_POINT('',(-3.27522867968,-5.482345202079));
#222 = CARTESIAN_POINT('',(-3.279026775195,-5.27743820127));
#223 = CARTESIAN_POINT('',(-3.28082327478,-5.069180438683));
#224 = CARTESIAN_POINT('',(-3.28065152584,-4.859806990129));
#225 = CARTESIAN_POINT('',(-3.278510334794,-4.651445288771));
#226 = CARTESIAN_POINT('',(-3.274367915408,-4.446393418011));
#227 = CARTESIAN_POINT('',(-3.268165220189,-4.24740951227));
#228 = CARTESIAN_POINT('',(-3.253616285034,-3.917615720687));
#229 = CARTESIAN_POINT('',(-3.246175998083,-3.781248914203));
#230 = CARTESIAN_POINT('',(-3.237468040887,-3.651674623168));
#231 = CARTESIAN_POINT('',(-3.227485599391,-3.531593120162));
#232 = CARTESIAN_POINT('',(-3.216248421686,-3.423909103128));
#233 = CARTESIAN_POINT('',(-3.203804733648,-3.331756148738));
#234 = CARTESIAN_POINT('',(-3.190237584171,-3.258555033542));
#235 = CARTESIAN_POINT('',(-3.161395456989,-3.158640211445));
#236 = CARTESIAN_POINT('',(-3.146447587732,-3.1320794247));
#237 = CARTESIAN_POINT('',(-3.131214016205,-3.131130331375));
#238 = CARTESIAN_POINT('',(-3.116107564957,-3.156498058337));
#239 = CARTESIAN_POINT('',(-3.101540951066,-3.206993826132));
#240 = CARTESIAN_POINT('',(-3.087892344655,-3.279590621816));
#241 = CARTESIAN_POINT('',(-3.075471856513,-3.369446620444));
#242 = CARTESIAN_POINT('',(-3.048961682718,-3.611944019225));
#243 = CARTESIAN_POINT('',(-3.035836400524,-3.779509362525));
#244 = CARTESIAN_POINT('',(-3.025084467962,-3.964573484674));
#245 = CARTESIAN_POINT('',(-3.016619291672,-4.161586100422));
#246 = CARTESIAN_POINT('',(-3.01035021718,-4.366436274307));
#247 = CARTESIAN_POINT('',(-3.006200366815,-4.576027313557));
#248 = CARTESIAN_POINT('',(-3.004123044486,-4.787944487198));
#249 = CARTESIAN_POINT('',(-3.004123044486,-5.));
#250 = ( GEOMETRIC_REPRESENTATION_CONTEXT(2) 
PARAMETRIC_REPRESENTATION_CONTEXT() REPRESENTATION_CONTEXT('2D SPACE',''
  ) );
#251 = PCURVE('',#252,#257);
#252 = CYLINDRICAL_SURFACE('',#253,1.85);
#253 = AXIS2_PLACEMENT_3D('',#254,#255,#256);
#254 = CARTESIAN_POINT('',(0.,0.,5.));
#255 = DIRECTION('',(1.,0.,0.));
#256 = DIRECTION('',(0.,1.,0.));
#257 = DEFINITIONAL_REPRESENTATION('',(#258),#317);
#258 = B_SPLINE_CURVE_WITH_KNOTS('',8,(#259,#260,#261,#262,#263,#264,
    #265,#266,#267,#268,#269,#270,#271,#272,#273,#274,#275,#276,#277,
    #278,#279,#280,#281,#282,#283,#284,#285,#286,#287,#288,#289,#290,
    #291,#292,#293,#294,#295,#296,#297,#298,#299,#300,#301,#302,#303,
    #304,#305,#306,#307,#308,#309,#310,#311,#312,#313,#314,#315,#316),
  .UNSPECIFIED.,.F.,.F.,(9,7,7,7,7,7,7,7,9),(0.,0.12575561294,
    0.214888688755,0.300602532445,0.431007438108,0.593343736688,
    0.714070769381,0.832516681621,1.),.UNSPECIFIED.);
#259 = CARTESIAN_POINT('',(0.,-13.3726399787));
#260 = CARTESIAN_POINT('',(8.726703732365E-02,-13.3726399787));
#261 = CARTESIAN_POINT('',(0.174482194086,-13.37486742872));
#262 = CARTESIAN_POINT('',(0.26212803242,-13.37931803524));
#263 = CARTESIAN_POINT('',(0.350642354345,-13.38590837446));
#264 = CARTESIAN_POINT('',(0.440464919217,-13.3944708931));
#265 = CARTESIAN_POINT('',(0.532049865681,-13.40472897576));
#266 = CARTESIAN_POINT('',(0.625885899705,-13.41626413584));
#267 = CARTESIAN_POINT('',(0.791091461356,-13.43715098424));
#268 = CARTESIAN_POINT('',(0.86140770593,-13.44620603329));
#269 = CARTESIAN_POINT('',(0.933436081864,-13.45540939598));
#270 = CARTESIAN_POINT('',(1.007145132607,-13.46446271416));
#271 = CARTESIAN_POINT('',(1.082540730023,-13.47302460722));
#272 = CARTESIAN_POINT('',(1.159663653925,-13.48072998903));
#273 = CARTESIAN_POINT('',(1.23859492834,-13.4872165045));
#274 = CARTESIAN_POINT('',(1.397240495322,-13.49691010275));
#275 = CARTESIAN_POINT('',(1.476347527755,-13.50020534236));
#276 = CARTESIAN_POINT('',(1.556174489707,-13.50174030411));
#277 = CARTESIAN_POINT('',(1.636194316681,-13.50133731828));
#278 = CARTESIAN_POINT('',(1.715916036729,-13.49899449369));
#279 = CARTESIAN_POINT('',(1.794831079946,-13.49489343454));
#280 = CARTESIAN_POINT('',(1.872358262503,-13.4893647261));
#281 = CARTESIAN_POINT('',(2.062545284028,-13.47284064856));
#282 = CARTESIAN_POINT('',(2.172474069972,-13.46049610515));
#283 = CARTESIAN_POINT('',(2.278378978186,-13.44691185009));
#284 = CARTESIAN_POINT('',(2.380825706565,-13.43313958007));
#285 = CARTESIAN_POINT('',(2.480283427918,-13.42002581082));
#286 = CARTESIAN_POINT('',(2.577160710807,-13.40819622326));
#287 = CARTESIAN_POINT('',(2.671813160963,-13.39808787597));
#288 = CARTESIAN_POINT('',(2.880110389229,-13.3798648422));
#289 = CARTESIAN_POINT('',(2.993199266397,-13.37280368385));
#290 = CARTESIAN_POINT('',(3.104989048493,-13.36931092404));
#291 = CARTESIAN_POINT('',(3.216393572792,-13.36962173597));
#292 = CARTESIAN_POINT('',(3.328266971597,-13.3737577651));
#293 = CARTESIAN_POINT('',(3.441461522952,-13.38152805254));
#294 = CARTESIAN_POINT('',(3.556887112269,-13.39247163502));
#295 = CARTESIAN_POINT('',(3.763995524286,-13.4156389629));
#296 = CARTESIAN_POINT('',(3.854906320836,-13.42689669985));
#297 = CARTESIAN_POINT('',(3.948415731736,-13.43917188251));
#298 = CARTESIAN_POINT('',(4.04461070906,-13.45193002203));
#299 = CARTESIAN_POINT('',(4.143662071847,-13.46446968764));
#300 = CARTESIAN_POINT('',(4.245821307487,-13.47594980306));
#301 = CARTESIAN_POINT('',(4.351440875641,-13.48546001658));
#302 = CARTESIAN_POINT('',(4.568610992851,-13.49872959549));
#303 = CARTESIAN_POINT('',(4.677827948875,-13.5024601692));
#304 = CARTESIAN_POINT('',(4.787551951519,-13.50266586926));
#305 = CARTESIAN_POINT('',(4.896865951864,-13.49906417265));
#306 = CARTESIAN_POINT('',(5.004877315103,-13.49200374905));
#307 = CARTESIAN_POINT('',(5.110581191896,-13.48237153922));
#308 = CARTESIAN_POINT('',(5.212687356386,-13.47131187592));
#309 = CARTESIAN_POINT('',(5.445890614447,-13.44374515906));
#310 = CARTESIAN_POINT('',(5.575655682394,-13.42638744006));
#311 = CARTESIAN_POINT('',(5.700244157021,-13.40980413657));
#312 = CARTESIAN_POINT('',(5.820818084185,-13.39543609287));
#313 = CARTESIAN_POINT('',(5.938424986037,-13.38415978351));
#314 = CARTESIAN_POINT('',(6.05401056161,-13.37648312129));
#315 = CARTESIAN_POINT('',(6.168560705665,-13.3726399787));
#316 = CARTESIAN_POINT('',(6.28318530718,-13.3726399787));
#317 = ( GEOMETRIC_REPRESENTATION_CONTEXT(2) 
PARAMETRIC_REPRESENTATION_CONTEXT() REPRESENTATION_CONTEXT('2D SPACE',''
  ) );
#318 = ADVANCED_FACE('',(#319),#61,.F.);
#319 = FACE_BOUND('',#320,.F.);
#320 = EDGE_LOOP('',(#321));
#321 = ORIENTED_EDGE('',*,*,#39,.T.);
#322 = ADVANCED_FACE('',(#323,#326),#111,.T.);
#323 = FACE_BOUND('',#324,.T.);
#324 = EDGE_LOOP('',(#325));
#325 = ORIENTED_EDGE('',*,*,#96,.T.);
#326 = FACE_BOUND('',#327,.T.);
#327 = EDGE_LOOP('',(#328));
#328 = ORIENTED_EDGE('',*,*,#329,.F.);
#329 = EDGE_CURVE('',#330,#330,#332,.T.);
#330 = VERTEX_POINT('',#331);
#331 = CARTESIAN_POINT('',(12.6,0.,9.));
#332 = SURFACE_CURVE('',#333,(#338,#345),.PCURVE_S1.);
#333 = CIRCLE('',#334,12.6);
#334 = AXIS2_PLACEMENT_3D('',#335,#336,#337);
#335 = CARTESIAN_POINT('',(0.,0.,9.));
#336 = DIRECTION('',(0.,0.,1.));
#337 = DIRECTION('',(1.,0.,0.));
#338 = PCURVE('',#111,#339);
#339 = DEFINITIONAL_REPRESENTATION('',(#340),#344);
#340 = CIRCLE('',#341,12.6);
#341 = AXIS2_PLACEMENT_2D('',#342,#343);
#342 = CARTESIAN_POINT('',(1.215502340035E-15,5.510910596163E-16));
#343 = DIRECTION('',(1.,0.));
#344 = ( GEOMETRIC_REPRESENTATION_CONTEXT(2) 
PARAMETRIC_REPRESENTATION_CONTEXT() REPRESENTATION_CONTEXT('2D SPACE',''
  ) );
#345 = PCURVE('',#346,#351);
#346 = CYLINDRICAL_SURFACE('',#347,12.6);
#347 = AXIS2_PLACEMENT_3D('',#348,#349,#350);
#348 = CARTESIAN_POINT('',(0.,0.,9.));
#349 = DIRECTION('',(0.,0.,1.));
#350 = DIRECTION('',(1.,0.,0.));
#351 = DEFINITIONAL_REPRESENTATION('',(#352),#356);
#352 = LINE('',#353,#354);
#353 = CARTESIAN_POINT('',(0.,0.));
#354 = VECTOR('',#355,1.);
#355 = DIRECTION('',(1.,0.));
#356 = ( GEOMETRIC_REPRESENTATION_CONTEXT(2) 
PARAMETRIC_REPRESENTATION_CONTEXT() REPRESENTATION_CONTEXT('2D SPACE',''
  ) );
#357 = ADVANCED_FACE('',(#358),#252,.F.);
#358 = FACE_BOUND('',#359,.F.);
#359 = EDGE_LOOP('',(#360,#547,#568,#569));
#360 = ORIENTED_EDGE('',*,*,#361,.F.);
#361 = EDGE_CURVE('',#362,#362,#364,.T.);
#362 = VERTEX_POINT('',#363);
#363 = CARTESIAN_POINT('',(-12.10950040257,1.85,5.));
#364 = SURFACE_CURVE('',#365,(#422,#482),.PCURVE_S1.);
#365 = B_SPLINE_CURVE_WITH_KNOTS('',7,(#366,#367,#368,#369,#370,#371,
    #372,#373,#374,#375,#376,#377,#378,#379,#380,#381,#382,#383,#384,
    #385,#386,#387,#388,#389,#390,#391,#392,#393,#394,#395,#396,#397,
    #398,#399,#400,#401,#402,#403,#404,#405,#406,#407,#408,#409,#410,
    #411,#412,#413,#414,#415,#416,#417,#418,#419,#420,#421),
  .UNSPECIFIED.,.T.,.F.,(8,6,6,6,6,6,6,6,6,8),(0.,0.126463348924,
    0.216141587862,0.302361058612,0.406076723654,0.50115062103,
    0.627863408713,0.750947583796,0.863705818459,1.),.UNSPECIFIED.);
#366 = CARTESIAN_POINT('',(-12.10950040257,1.85,5.));
#367 = CARTESIAN_POINT('',(-12.10950040257,1.85,5.184559513896));
#368 = CARTESIAN_POINT('',(-12.11278198229,1.828519692453,5.368989365828
    ));
#369 = CARTESIAN_POINT('',(-12.11933741363,1.785610740287,5.551704288783
    ));
#370 = CARTESIAN_POINT('',(-12.12898167837,1.720872606019,5.730982054116
    ));
#371 = CARTESIAN_POINT('',(-12.14133810209,1.633584447976,5.904721798268
    ));
#372 = CARTESIAN_POINT('',(-12.1557391618,1.522826469382,6.070162271841)
  );
#373 = CARTESIAN_POINT('',(-12.18206985798,1.291887895457,6.332110665313
    ));
#374 = CARTESIAN_POINT('',(-12.19356728582,1.183228165771,6.435341289243
    ));
#375 = CARTESIAN_POINT('',(-12.2052082441,1.061748756554,6.530905916505)
  );
#376 = CARTESIAN_POINT('',(-12.2164426091,0.927812292021,6.616585305054)
  );
#377 = CARTESIAN_POINT('',(-12.22663508141,0.782118453122,6.690150276548
    ));
#378 = CARTESIAN_POINT('',(-12.23513173868,0.625722624809,6.749348098376
    ));
#379 = CARTESIAN_POINT('',(-12.24734285079,0.300818712383,6.8327692444)
  );
#380 = CARTESIAN_POINT('',(-12.2511877276,0.134113866202,6.857969542082)
  );
#381 = CARTESIAN_POINT('',(-12.25235640807,-3.651172863366E-02,
    6.865298619543));
#382 = CARTESIAN_POINT('',(-12.25059127609,-0.207138244841,
    6.853955851186));
#383 = CARTESIAN_POINT('',(-12.24605855444,-0.373792147741,
    6.824487931413));
#384 = CARTESIAN_POINT('',(-12.23930917502,-0.532781993227,
    6.778782204289));
#385 = CARTESIAN_POINT('',(-12.22112503922,-0.859362350234,
    6.649479893827));
#386 = CARTESIAN_POINT('',(-12.20899713654,-1.022525344648,
    6.559927711216));
#387 = CARTESIAN_POINT('',(-12.19564991323,-1.169489621303,
    6.455175189305));
#388 = CARTESIAN_POINT('',(-12.18201597287,-1.299852493751,
    6.338392488704));
#389 = CARTESIAN_POINT('',(-12.16885401532,-1.413590369465,
    6.212333230238));
#390 = CARTESIAN_POINT('',(-12.15673810613,-1.510947593593,
    6.079409039408));
#391 = CARTESIAN_POINT('',(-12.13627756921,-1.667013422192,
    5.815516135024));
#392 = CARTESIAN_POINT('',(-12.12766551439,-1.728550906683,5.68482654626
    ));
#393 = CARTESIAN_POINT('',(-12.12052094781,-1.777354141878,
    5.550871832849));
#394 = CARTESIAN_POINT('',(-12.11504117438,-1.813731264467,
    5.414631046275));
#395 = CARTESIAN_POINT('',(-12.11134791769,-1.837907005979,
    5.276922945058));
#396 = CARTESIAN_POINT('',(-12.10950040257,-1.85,5.138476890124));
#397 = CARTESIAN_POINT('',(-12.10950040257,-1.85,4.815440480912));
#398 = CARTESIAN_POINT('',(-12.11278198241,-1.828519691147,
    4.631010646897));
#399 = CARTESIAN_POINT('',(-12.11933741296,-1.785610746496,
    4.448295701969));
#400 = CARTESIAN_POINT('',(-12.12898167971,-1.720872594325,4.26901794137
    ));
#401 = CARTESIAN_POINT('',(-12.14133810088,-1.633584458489,
    4.095278211871));
#402 = CARTESIAN_POINT('',(-12.15573916225,-1.522826465377,
    3.929837723616));
#403 = CARTESIAN_POINT('',(-12.18610990253,-1.256453886367,
    3.627697340783));
#404 = CARTESIAN_POINT('',(-12.2024042092,-1.098869101091,3.486514971226
    ));
#405 = CARTESIAN_POINT('',(-12.21877958627,-0.915387539812,
    3.361461749462));
#406 = CARTESIAN_POINT('',(-12.23341109991,-0.708696810665,
    3.259851391746));
#407 = CARTESIAN_POINT('',(-12.24429619887,-0.483227924456,
    3.187767062278));
#408 = CARTESIAN_POINT('',(-12.25,-0.244720949986,3.15));
#409 = CARTESIAN_POINT('',(-12.25,0.224190496357,3.15));
#410 = CARTESIAN_POINT('',(-12.24521309712,0.443768285492,3.181696168915
    ));
#411 = CARTESIAN_POINT('',(-12.23599463749,0.653174586509,3.242742100145
    ));
#412 = CARTESIAN_POINT('',(-12.22338562052,0.847538076248,3.32956419971)
  );
#413 = CARTESIAN_POINT('',(-12.20891220478,1.022942037385,3.437427777152
    ));
#414 = CARTESIAN_POINT('',(-12.19406175724,1.176781218084,3.560486127694
    ));
#415 = CARTESIAN_POINT('',(-12.16289887098,1.46693387321,3.85063878282)
  );
#416 = CARTESIAN_POINT('',(-12.14649356134,1.596934765713,4.025610918219
    ));
#417 = CARTESIAN_POINT('',(-12.13220849565,1.699164176083,4.211368647934
    ));
#418 = CARTESIAN_POINT('',(-12.12098489739,1.774827755342,4.404182519417
    ));
#419 = CARTESIAN_POINT('',(-12.11333250452,1.824915928808,4.601302738816
    ));
#420 = CARTESIAN_POINT('',(-12.10950040257,1.85,4.800557633653));
#421 = CARTESIAN_POINT('',(-12.10950040257,1.85,5.));
#422 = PCURVE('',#252,#423);
#423 = DEFINITIONAL_REPRESENTATION('',(#424),#481);
#424 = B_SPLINE_CURVE_WITH_KNOTS('',7,(#425,#426,#427,#428,#429,#430,
    #431,#432,#433,#434,#435,#436,#437,#438,#439,#440,#441,#442,#443,
    #444,#445,#446,#447,#448,#449,#450,#451,#452,#453,#454,#455,#456,
    #457,#458,#459,#460,#461,#462,#463,#464,#465,#466,#467,#468,#469,
    #470,#471,#472,#473,#474,#475,#476,#477,#478,#479,#480),
  .UNSPECIFIED.,.F.,.F.,(8,6,6,6,6,6,6,6,6,8),(0.,0.126463348924,
    0.216141587862,0.302361058612,0.406076723654,0.50115062103,
    0.627863408713,0.750947583796,0.863705818459,1.),.UNSPECIFIED.);
#425 = CARTESIAN_POINT('',(0.,-12.10950040257));
#426 = CARTESIAN_POINT('',(9.976189940301E-02,-12.10950040257));
#427 = CARTESIAN_POINT('',(0.199453566357,-12.11278198229));
#428 = CARTESIAN_POINT('',(0.299840745559,-12.11933741363));
#429 = CARTESIAN_POINT('',(0.401601223899,-12.12898167837));
#430 = CARTESIAN_POINT('',(0.505448937207,-12.14133810209));
#431 = CARTESIAN_POINT('',(0.612121636476,-12.1557391618));
#432 = CARTESIAN_POINT('',(0.800885316861,-12.18206985798));
#433 = CARTESIAN_POINT('',(0.881584177661,-12.19356728582));
#434 = CARTESIAN_POINT('',(0.964540891781,-12.2052082441));
#435 = CARTESIAN_POINT('',(1.04972801492,-12.2164426091));
#436 = CARTESIAN_POINT('',(1.137185708624,-12.22663508141));
#437 = CARTESIAN_POINT('',(1.227026094653,-12.23513173868));
#438 = CARTESIAN_POINT('',(1.408346340033,-12.24734285079));
#439 = CARTESIAN_POINT('',(1.499013264584,-12.2511877276));
#440 = CARTESIAN_POINT('',(1.590479222918,-12.25235640807));
#441 = CARTESIAN_POINT('',(1.681932973122,-12.25059127609));
#442 = CARTESIAN_POINT('',(1.77260108232,-12.24605855444));
#443 = CARTESIAN_POINT('',(1.861600832323,-12.23930917502));
#444 = CARTESIAN_POINT('',(2.0514635847,-12.22112503922));
#445 = CARTESIAN_POINT('',(2.151286104326,-12.20899713654));
#446 = CARTESIAN_POINT('',(2.24781155318,-12.19564991323));
#447 = CARTESIAN_POINT('',(2.341421412549,-12.18201597287));
#448 = CARTESIAN_POINT('',(2.432424647752,-12.16885401532));
#449 = CARTESIAN_POINT('',(2.521058214707,-12.15673810613));
#450 = CARTESIAN_POINT('',(2.686781287016,-12.13627756921));
#451 = CARTESIAN_POINT('',(2.764519432322,-12.12766551439));
#452 = CARTESIAN_POINT('',(2.841084994615,-12.12052094781));
#453 = CARTESIAN_POINT('',(2.916783311133,-12.11504117438));
#454 = CARTESIAN_POINT('',(2.991904350502,-12.11134791769));
#455 = CARTESIAN_POINT('',(3.06674028055,-12.10950040257));
#456 = CARTESIAN_POINT('',(3.241354555799,-12.10950040257));
#457 = CARTESIAN_POINT('',(3.34104621342,-12.11278198241));
#458 = CARTESIAN_POINT('',(3.441433402777,-12.11933741296));
#459 = CARTESIAN_POINT('',(3.543193882295,-12.12898167971));
#460 = CARTESIAN_POINT('',(3.647041583227,-12.14133810088));
#461 = CARTESIAN_POINT('',(3.753714293339,-12.15573916225));
#462 = CARTESIAN_POINT('',(3.971440884064,-12.18610990253));
#463 = CARTESIAN_POINT('',(4.085016723792,-12.2024042092));
#464 = CARTESIAN_POINT('',(4.203325971586,-12.21877958627));
#465 = CARTESIAN_POINT('',(4.325528621425,-12.23341109991));
#466 = CARTESIAN_POINT('',(4.451184802492,-12.24429619887));
#467 = CARTESIAN_POINT('',(4.580107385798,-12.25));
#468 = CARTESIAN_POINT('',(4.83357303247,-12.25));
#469 = CARTESIAN_POINT('',(4.952263606669,-12.24521309712));
#470 = CARTESIAN_POINT('',(5.068363550189,-12.23599463749));
#471 = CARTESIAN_POINT('',(5.181605777451,-12.22338562052));
#472 = CARTESIAN_POINT('',(5.291529651085,-12.20891220478));
#473 = CARTESIAN_POINT('',(5.397365499761,-12.19406175724));
#474 = CARTESIAN_POINT('',(5.619169726808,-12.16289887098));
#475 = CARTESIAN_POINT('',(5.735736691916,-12.14649356134));
#476 = CARTESIAN_POINT('',(5.848730740835,-12.13220849565));
#477 = CARTESIAN_POINT('',(5.959074308135,-12.12098489739));
#478 = CARTESIAN_POINT('',(6.067673559809,-12.11333250452));
#479 = CARTESIAN_POINT('',(6.175378622668,-12.10950040257));
#480 = CARTESIAN_POINT('',(6.28318530718,-12.10950040257));
#481 = ( GEOMETRIC_REPRESENTATION_CONTEXT(2) 
PARAMETRIC_REPRESENTATION_CONTEXT() REPRESENTATION_CONTEXT('2D SPACE',''
  ) );
#482 = PCURVE('',#483,#488);
#483 = CYLINDRICAL_SURFACE('',#484,12.25);
#484 = AXIS2_PLACEMENT_3D('',#485,#486,#487);
#485 = CARTESIAN_POINT('',(0.,0.,9.));
#486 = DIRECTION('',(0.,0.,1.));
#487 = DIRECTION('',(1.,0.,0.));
#488 = DEFINITIONAL_REPRESENTATION('',(#489),#546);
#489 = B_SPLINE_CURVE_WITH_KNOTS('',7,(#490,#491,#492,#493,#494,#495,
    #496,#497,#498,#499,#500,#501,#502,#503,#504,#505,#506,#507,#508,
    #509,#510,#511,#512,#513,#514,#515,#516,#517,#518,#519,#520,#521,
    #522,#523,#524,#525,#526,#527,#528,#529,#530,#531,#532,#533,#534,
    #535,#536,#537,#538,#539,#540,#541,#542,#543,#544,#545),
  .UNSPECIFIED.,.T.,.F.,(8,6,6,6,6,6,6,6,6,8),(0.,0.126463348924,
    0.216141587862,0.302361058612,0.406076723654,0.50115062103,
    0.627863408713,0.750947583796,0.863705818459,1.),.UNSPECIFIED.);
#490 = CARTESIAN_POINT('',(2.989992214635,-4.));
#491 = CARTESIAN_POINT('',(2.989992214635,-3.815440486104));
#492 = CARTESIAN_POINT('',(2.99176605323,-3.631010634172));
#493 = CARTESIAN_POINT('',(2.995309469417,-3.448295711217));
#494 = CARTESIAN_POINT('',(3.000652490434,-3.269017945884));
#495 = CARTESIAN_POINT('',(3.007848686319,-3.095278201732));
#496 = CARTESIAN_POINT('',(3.016965127096,-2.929837728159));
#497 = CARTESIAN_POINT('',(3.035939395472,-2.667889334687));
#498 = CARTESIAN_POINT('',(3.044858793637,-2.564658710757));
#499 = CARTESIAN_POINT('',(3.054820119439,-2.469094083495));
#500 = CARTESIAN_POINT('',(3.06579052441,-2.383414694946));
#501 = CARTESIAN_POINT('',(3.07771083302,-2.309849723452));
#502 = CARTESIAN_POINT('',(3.090494873746,-2.250651901624));
#503 = CARTESIAN_POINT('',(3.117036367724,-2.1672307556));
#504 = CARTESIAN_POINT('',(3.130647144127,-2.142030457918));
#505 = CARTESIAN_POINT('',(3.144573001488,-2.134701380457));
#506 = CARTESIAN_POINT('',(3.158498916894,-2.146044148814));
#507 = CARTESIAN_POINT('',(3.172105636468,-2.175512068587));
#508 = CARTESIAN_POINT('',(3.185094993602,-2.221217795711));
#509 = CARTESIAN_POINT('',(3.211795909154,-2.350520106173));
#510 = CARTESIAN_POINT('',(3.225149776572,-2.440072288784));
#511 = CARTESIAN_POINT('',(3.237193951619,-2.544824810695));
#512 = CARTESIAN_POINT('',(3.247892563482,-2.661607511296));
#513 = CARTESIAN_POINT('',(3.257238660545,-2.787666769762));
#514 = CARTESIAN_POINT('',(3.265247325474,-2.920590960592));
#515 = CARTESIAN_POINT('',(3.278096413052,-3.184483864976));
#516 = CARTESIAN_POINT('',(3.283168645954,-3.31517345374));
#517 = CARTESIAN_POINT('',(3.287194969807,-3.449128167151));
#518 = CARTESIAN_POINT('',(3.290198031358,-3.585368953725));
#519 = CARTESIAN_POINT('',(3.29219445428,-3.723077054942));
#520 = CARTESIAN_POINT('',(3.293193092545,-3.861523109876));
#521 = CARTESIAN_POINT('',(3.293193092545,-4.184559519088));
#522 = CARTESIAN_POINT('',(3.291419253843,-4.368989353103));
#523 = CARTESIAN_POINT('',(3.287875838273,-4.551704298031));
#524 = CARTESIAN_POINT('',(3.282532815784,-4.73098205863));
#525 = CARTESIAN_POINT('',(3.275336621724,-4.904721788129));
#526 = CARTESIAN_POINT('',(3.266220179754,-5.070162276384));
#527 = CARTESIAN_POINT('',(3.24433459903,-5.372302659217));
#528 = CARTESIAN_POINT('',(3.231402673457,-5.513485028774));
#529 = CARTESIAN_POINT('',(3.216367456691,-5.638538250538));
#530 = CARTESIAN_POINT('',(3.199458408495,-5.740148608254));
#531 = CARTESIAN_POINT('',(3.181039845943,-5.812232937722));
#532 = CARTESIAN_POINT('',(3.161569873997,-5.85));
#533 = CARTESIAN_POINT('',(3.123291388581,-5.85));
#534 = CARTESIAN_POINT('',(3.105366661115,-5.818303831085));
#535 = CARTESIAN_POINT('',(3.08826231229,-5.757257899855));
#536 = CARTESIAN_POINT('',(3.072367563019,-5.67043580029));
#537 = CARTESIAN_POINT('',(3.058002482733,-5.562572222848));
#538 = CARTESIAN_POINT('',(3.045386544678,-5.439513872306));
#539 = CARTESIAN_POINT('',(3.021564395274,-5.14936121718));
#540 = CARTESIAN_POINT('',(3.010869749597,-4.974389081781));
#541 = CARTESIAN_POINT('',(3.002444062087,-4.788631352066));
#542 = CARTESIAN_POINT('',(2.99619992737,-4.595817480583));
#543 = CARTESIAN_POINT('',(2.992063651031,-4.398697261184));
#544 = CARTESIAN_POINT('',(2.989992214635,-4.199442366347));
#545 = CARTESIAN_POINT('',(2.989992214635,-4.));
#546 = ( GEOMETRIC_REPRESENTATION_CONTEXT(2) 
PARAMETRIC_REPRESENTATION_CONTEXT() REPRESENTATION_CONTEXT('2D SPACE',''
  ) );
#547 = ORIENTED_EDGE('',*,*,#548,.T.);
#548 = EDGE_CURVE('',#362,#127,#549,.T.);
#549 = SEAM_CURVE('',#550,(#554,#561),.PCURVE_S1.);
#550 = LINE('',#551,#552);
#551 = CARTESIAN_POINT('',(0.,1.85,5.));
#552 = VECTOR('',#553,1.);
#553 = DIRECTION('',(-1.,-0.,-0.));
#554 = PCURVE('',#252,#555);
#555 = DEFINITIONAL_REPRESENTATION('',(#556),#560);
#556 = LINE('',#557,#558);
#557 = CARTESIAN_POINT('',(6.28318530718,0.));
#558 = VECTOR('',#559,1.);
#559 = DIRECTION('',(0.,-1.));
#560 = ( GEOMETRIC_REPRESENTATION_CONTEXT(2) 
PARAMETRIC_REPRESENTATION_CONTEXT() REPRESENTATION_CONTEXT('2D SPACE',''
  ) );
#561 = PCURVE('',#252,#562);
#562 = DEFINITIONAL_REPRESENTATION('',(#563),#567);
#563 = LINE('',#564,#565);
#564 = CARTESIAN_POINT('',(0.,0.));
#565 = VECTOR('',#566,1.);
#566 = DIRECTION('',(0.,-1.));
#567 = ( GEOMETRIC_REPRESENTATION_CONTEXT(2) 
PARAMETRIC_REPRESENTATION_CONTEXT() REPRESENTATION_CONTEXT('2D SPACE',''
  ) );
#568 = ORIENTED_EDGE('',*,*,#126,.T.);
#569 = ORIENTED_EDGE('',*,*,#548,.F.);
#570 = ADVANCED_FACE('',(#571),#346,.F.);
#571 = FACE_BOUND('',#572,.F.);
#572 = EDGE_LOOP('',(#573,#596,#623,#624));
#573 = ORIENTED_EDGE('',*,*,#574,.T.);
#574 = EDGE_CURVE('',#330,#575,#577,.T.);
#575 = VERTEX_POINT('',#576);
#576 = CARTESIAN_POINT('',(12.6,0.,7.3));
#577 = SEAM_CURVE('',#578,(#582,#589),.PCURVE_S1.);
#578 = LINE('',#579,#580);
#579 = CARTESIAN_POINT('',(12.6,0.,9.));
#580 = VECTOR('',#581,1.);
#581 = DIRECTION('',(-0.,-0.,-1.));
#582 = PCURVE('',#346,#583);
#583 = DEFINITIONAL_REPRESENTATION('',(#584),#588);
#584 = LINE('',#585,#586);
#585 = CARTESIAN_POINT('',(0.,0.));
#586 = VECTOR('',#587,1.);
#587 = DIRECTION('',(0.,-1.));
#588 = ( GEOMETRIC_REPRESENTATION_CONTEXT(2) 
PARAMETRIC_REPRESENTATION_CONTEXT() REPRESENTATION_CONTEXT('2D SPACE',''
  ) );
#589 = PCURVE('',#346,#590);
#590 = DEFINITIONAL_REPRESENTATION('',(#591),#595);
#591 = LINE('',#592,#593);
#592 = CARTESIAN_POINT('',(6.28318530718,0.));
#593 = VECTOR('',#594,1.);
#594 = DIRECTION('',(0.,-1.));
#595 = ( GEOMETRIC_REPRESENTATION_CONTEXT(2) 
PARAMETRIC_REPRESENTATION_CONTEXT() REPRESENTATION_CONTEXT('2D SPACE',''
  ) );
#596 = ORIENTED_EDGE('',*,*,#597,.T.);
#597 = EDGE_CURVE('',#575,#575,#598,.T.);
#598 = SURFACE_CURVE('',#599,(#604,#611),.PCURVE_S1.);
#599 = CIRCLE('',#600,12.6);
#600 = AXIS2_PLACEMENT_3D('',#601,#602,#603);
#601 = CARTESIAN_POINT('',(0.,0.,7.3));
#602 = DIRECTION('',(0.,0.,1.));
#603 = DIRECTION('',(1.,0.,0.));
#604 = PCURVE('',#346,#605);
#605 = DEFINITIONAL_REPRESENTATION('',(#606),#610);
#606 = LINE('',#607,#608);
#607 = CARTESIAN_POINT('',(0.,-1.7));
#608 = VECTOR('',#609,1.);
#609 = DIRECTION('',(1.,0.));
#610 = ( GEOMETRIC_REPRESENTATION_CONTEXT(2) 
PARAMETRIC_REPRESENTATION_CONTEXT() REPRESENTATION_CONTEXT('2D SPACE',''
  ) );
#611 = PCURVE('',#612,#617);
#612 = PLANE('',#613);
#613 = AXIS2_PLACEMENT_3D('',#614,#615,#616);
#614 = CARTESIAN_POINT('',(-4.341079785839E-16,3.53864301526E-16,7.3));
#615 = DIRECTION('',(0.,0.,1.));
#616 = DIRECTION('',(1.,0.,0.));
#617 = DEFINITIONAL_REPRESENTATION('',(#618),#622);
#618 = CIRCLE('',#619,12.6);
#619 = AXIS2_PLACEMENT_2D('',#620,#621);
#620 = CARTESIAN_POINT('',(4.341079785839E-16,-3.53864301526E-16));
#621 = DIRECTION('',(1.,0.));
#622 = ( GEOMETRIC_REPRESENTATION_CONTEXT(2) 
PARAMETRIC_REPRESENTATION_CONTEXT() REPRESENTATION_CONTEXT('2D SPACE',''
  ) );
#623 = ORIENTED_EDGE('',*,*,#574,.F.);
#624 = ORIENTED_EDGE('',*,*,#329,.F.);
#625 = ADVANCED_FACE('',(#626,#703),#483,.F.);
#626 = FACE_BOUND('',#627,.F.);
#627 = EDGE_LOOP('',(#628,#653,#675,#676));
#628 = ORIENTED_EDGE('',*,*,#629,.F.);
#629 = EDGE_CURVE('',#630,#632,#634,.T.);
#630 = VERTEX_POINT('',#631);
#631 = CARTESIAN_POINT('',(12.25,0.,7.3));
#632 = VERTEX_POINT('',#633);
#633 = CARTESIAN_POINT('',(12.25,0.,0.8));
#634 = SEAM_CURVE('',#635,(#639,#646),.PCURVE_S1.);
#635 = LINE('',#636,#637);
#636 = CARTESIAN_POINT('',(12.25,0.,9.));
#637 = VECTOR('',#638,1.);
#638 = DIRECTION('',(-0.,-0.,-1.));
#639 = PCURVE('',#483,#640);
#640 = DEFINITIONAL_REPRESENTATION('',(#641),#645);
#641 = LINE('',#642,#643);
#642 = CARTESIAN_POINT('',(6.28318530718,0.));
#643 = VECTOR('',#644,1.);
#644 = DIRECTION('',(0.,-1.));
#645 = ( GEOMETRIC_REPRESENTATION_CONTEXT(2) 
PARAMETRIC_REPRESENTATION_CONTEXT() REPRESENTATION_CONTEXT('2D SPACE',''
  ) );
#646 = PCURVE('',#483,#647);
#647 = DEFINITIONAL_REPRESENTATION('',(#648),#652);
#648 = LINE('',#649,#650);
#649 = CARTESIAN_POINT('',(0.,0.));
#650 = VECTOR('',#651,1.);
#651 = DIRECTION('',(0.,-1.));
#652 = ( GEOMETRIC_REPRESENTATION_CONTEXT(2) 
PARAMETRIC_REPRESENTATION_CONTEXT() REPRESENTATION_CONTEXT('2D SPACE',''
  ) );
#653 = ORIENTED_EDGE('',*,*,#654,.F.);
#654 = EDGE_CURVE('',#630,#630,#655,.T.);
#655 = SURFACE_CURVE('',#656,(#661,#668),.PCURVE_S1.);
#656 = CIRCLE('',#657,12.25);
#657 = AXIS2_PLACEMENT_3D('',#658,#659,#660);
#658 = CARTESIAN_POINT('',(0.,0.,7.3));
#659 = DIRECTION('',(0.,0.,1.));
#660 = DIRECTION('',(1.,0.,0.));
#661 = PCURVE('',#483,#662);
#662 = DEFINITIONAL_REPRESENTATION('',(#663),#667);
#663 = LINE('',#664,#665);
#664 = CARTESIAN_POINT('',(0.,-1.7));
#665 = VECTOR('',#666,1.);
#666 = DIRECTION('',(1.,0.));
#667 = ( GEOMETRIC_REPRESENTATION_CONTEXT(2) 
PARAMETRIC_REPRESENTATION_CONTEXT() REPRESENTATION_CONTEXT('2D SPACE',''
  ) );
#668 = PCURVE('',#612,#669);
#669 = DEFINITIONAL_REPRESENTATION('',(#670),#674);
#670 = CIRCLE('',#671,12.25);
#671 = AXIS2_PLACEMENT_2D('',#672,#673);
#672 = CARTESIAN_POINT('',(4.341079785839E-16,-3.53864301526E-16));
#673 = DIRECTION('',(1.,0.));
#674 = ( GEOMETRIC_REPRESENTATION_CONTEXT(2) 
PARAMETRIC_REPRESENTATION_CONTEXT() REPRESENTATION_CONTEXT('2D SPACE',''
  ) );
#675 = ORIENTED_EDGE('',*,*,#629,.T.);
#676 = ORIENTED_EDGE('',*,*,#677,.T.);
#677 = EDGE_CURVE('',#632,#632,#678,.T.);
#678 = SURFACE_CURVE('',#679,(#684,#691),.PCURVE_S1.);
#679 = CIRCLE('',#680,12.25);
#680 = AXIS2_PLACEMENT_3D('',#681,#682,#683);
#681 = CARTESIAN_POINT('',(0.,0.,0.8));
#682 = DIRECTION('',(0.,0.,1.));
#683 = DIRECTION('',(1.,0.,0.));
#684 = PCURVE('',#483,#685);
#685 = DEFINITIONAL_REPRESENTATION('',(#686),#690);
#686 = LINE('',#687,#688);
#687 = CARTESIAN_POINT('',(0.,-8.2));
#688 = VECTOR('',#689,1.);
#689 = DIRECTION('',(1.,0.));
#690 = ( GEOMETRIC_REPRESENTATION_CONTEXT(2) 
PARAMETRIC_REPRESENTATION_CONTEXT() REPRESENTATION_CONTEXT('2D SPACE',''
  ) );
#691 = PCURVE('',#692,#697);
#692 = PLANE('',#693);
#693 = AXIS2_PLACEMENT_3D('',#694,#695,#696);
#694 = CARTESIAN_POINT('',(-4.465110636863E-16,-5.355304596549E-17,0.8)
  );
#695 = DIRECTION('',(0.,0.,1.));
#696 = DIRECTION('',(1.,0.,0.));
#697 = DEFINITIONAL_REPRESENTATION('',(#698),#702);
#698 = CIRCLE('',#699,12.25);
#699 = AXIS2_PLACEMENT_2D('',#700,#701);
#700 = CARTESIAN_POINT('',(4.465110636863E-16,5.355304596549E-17));
#701 = DIRECTION('',(1.,0.));
#702 = ( GEOMETRIC_REPRESENTATION_CONTEXT(2) 
PARAMETRIC_REPRESENTATION_CONTEXT() REPRESENTATION_CONTEXT('2D SPACE',''
  ) );
#703 = FACE_BOUND('',#704,.F.);
#704 = EDGE_LOOP('',(#705));
#705 = ORIENTED_EDGE('',*,*,#361,.T.);
#706 = ADVANCED_FACE('',(#707,#710),#612,.T.);
#707 = FACE_BOUND('',#708,.T.);
#708 = EDGE_LOOP('',(#709));
#709 = ORIENTED_EDGE('',*,*,#597,.T.);
#710 = FACE_BOUND('',#711,.T.);
#711 = EDGE_LOOP('',(#712));
#712 = ORIENTED_EDGE('',*,*,#654,.F.);
#713 = ADVANCED_FACE('',(#714),#692,.T.);
#714 = FACE_BOUND('',#715,.T.);
#715 = EDGE_LOOP('',(#716));
#716 = ORIENTED_EDGE('',*,*,#677,.T.);
#717 = ( GEOMETRIC_REPRESENTATION_CONTEXT(3) 
GLOBAL_UNCERTAINTY_ASSIGNED_CONTEXT((#721)) GLOBAL_UNIT_ASSIGNED_CONTEXT
((#718,#719,#720)) REPRESENTATION_CONTEXT('Context #1',
  '3D Context with UNIT and UNCERTAINTY') );
#718 = ( LENGTH_UNIT() NAMED_UNIT(*) SI_UNIT(.MILLI.,.METRE.) );
#719 = ( NAMED_UNIT(*) PLANE_ANGLE_UNIT() SI_UNIT($,.RADIAN.) );
#720 = ( NAMED_UNIT(*) SI_UNIT($,.STERADIAN.) SOLID_ANGLE_UNIT() );
#721 = UNCERTAINTY_MEASURE_WITH_UNIT(LENGTH_MEASURE(1.E-07),#718,
  'distance_accuracy_value','confusion accuracy');
#722 = CONTEXT_DEPENDENT_SHAPE_REPRESENTATION(#723,#725);
#723 = ( REPRESENTATION_RELATIONSHIP('','',#32,#10) 
REPRESENTATION_RELATIONSHIP_WITH_TRANSFORMATION(#724) 
SHAPE_REPRESENTATION_RELATIONSHIP() );
#724 = ITEM_DEFINED_TRANSFORMATION('','',#11,#15);
#725 = PRODUCT_DEFINITION_SHAPE('Placement','Placement of an item',#726
  );
#726 = NEXT_ASSEMBLY_USAGE_OCCURRENCE('1','Body002','',#5,#27,$);
#727 = PRODUCT_TYPE('part',$,(#29));
#728 = MECHANICAL_DESIGN_GEOMETRIC_PRESENTATION_REPRESENTATION('',(#729)
  ,#717);
#729 = STYLED_ITEM('color',(#730),#33);
#730 = PRESENTATION_STYLE_ASSIGNMENT((#731,#737));
#731 = SURFACE_STYLE_USAGE(.BOTH.,#732);
#732 = SURFACE_SIDE_STYLE('',(#733));
#733 = SURFACE_STYLE_FILL_AREA(#734);
#734 = FILL_AREA_STYLE('',(#735));
#735 = FILL_AREA_STYLE_COLOUR('',#736);
#736 = COLOUR_RGB('',0.447058818107,0.474509808674,0.501960817233);
#737 = CURVE_STYLE('',#738,POSITIVE_LENGTH_MEASURE(0.1),#739);
#738 = DRAUGHTING_PRE_DEFINED_CURVE_FONT('continuous');
#739 = COLOUR_RGB('',9.803921802644E-02,9.803921802644E-02,
  9.803921802644E-02);
ENDSEC;
END-ISO-10303-21;
